<svg width="32" height="14" viewBox="0 0 32 14" fill="none" xmlns="http://www.w3.org/2000/svg">
<path d="M15.1728 6.60352V10.3119H13.9766V1.14062H17.0868C17.8445 1.14062 18.5622 1.41975 19.1205 1.93813C19.6787 2.41663 19.9578 3.13438 19.9578 3.89201C19.9578 4.64964 19.6787 5.32752 19.1205 5.8459C18.5622 6.36427 17.8843 6.6434 17.0868 6.6434L15.1728 6.60352ZM15.1728 2.25713V5.44714H17.1666C17.6052 5.44714 18.0438 5.28764 18.323 4.96864C18.961 4.37051 18.961 3.37364 18.3628 2.77551L18.323 2.73563C18.004 2.41663 17.6052 2.21725 17.1666 2.25713H15.1728Z" fill="white"/>
<path d="M22.7104 3.85156C23.5876 3.85156 24.2655 4.09081 24.7839 4.56932C25.3023 5.04782 25.5415 5.68582 25.5415 6.48332V10.3113H24.425V9.43409H24.3851C23.9066 10.1518 23.2287 10.5107 22.4312 10.5107C21.7534 10.5107 21.1552 10.3113 20.6767 9.91259C20.2381 9.51384 19.959 8.95559 19.959 8.35746C19.959 7.71945 20.1982 7.20108 20.6767 6.80233C21.1552 6.40357 21.8331 6.24407 22.6306 6.24407C23.3484 6.24407 23.9066 6.3637 24.3453 6.64282V6.3637C24.3453 5.96495 24.1858 5.5662 23.8668 5.32694C23.5478 5.04782 23.149 4.88832 22.7104 4.88832C22.0325 4.88832 21.5141 5.16744 21.1552 5.7257L20.1185 5.08769C20.7565 4.25031 21.5939 3.85156 22.7104 3.85156ZM21.1951 8.39733C21.1951 8.71633 21.3546 8.99546 21.5939 9.15496C21.873 9.35434 22.192 9.47396 22.511 9.47396C22.9895 9.47396 23.468 9.27459 23.8269 8.91571C24.2256 8.55683 24.425 8.11821 24.425 7.6397C24.0661 7.36058 23.5478 7.20108 22.8699 7.20108C22.3914 7.20108 21.9926 7.3207 21.6736 7.55995C21.3546 7.75933 21.1951 8.03846 21.1951 8.39733Z" fill="white"/>
<path d="M32.0006 4.05078L28.053 13.1024H26.8567L28.3321 9.95231L25.7402 4.09066H27.0162L28.8904 8.59655H28.9302L30.7645 4.09066H32.0006V4.05078Z" fill="white"/>
<path d="M10.4274 5.80515C10.4274 5.44627 10.3876 5.08739 10.3477 4.72852H5.36328V6.76215H8.19442C8.07479 7.40015 7.71592 7.99828 7.15767 8.35716V9.67304H8.8723C9.86918 8.75591 10.4274 7.40015 10.4274 5.80515Z" fill="white"/>
<path d="M5.36347 10.9493C6.79898 10.9493 7.99524 10.4708 8.87249 9.67326L7.15786 8.35737C6.67936 8.67638 6.08123 8.87575 5.36347 8.87575C4.00772 8.87575 2.81146 7.95862 2.41271 6.68262H0.658203V8.03837C1.57533 9.83276 3.36972 10.9493 5.36347 10.9493Z" fill="white"/>
<path d="M2.41257 6.68236C2.17332 6.04436 2.17332 5.3266 2.41257 4.64873V3.29297H0.658065C-0.0995634 4.76835 -0.0995634 6.52286 0.658065 8.03811L2.41257 6.68236Z" fill="white"/>
<path d="M5.36266 2.49558C6.12029 2.49558 6.83804 2.7747 7.3963 3.29308L8.91155 1.77782C7.95455 0.900569 6.67854 0.382192 5.40254 0.422067C3.40878 0.422067 1.57452 1.53857 0.697266 3.33296L2.45177 4.68871C2.81065 3.41271 4.00691 2.49558 5.36266 2.49558Z" fill="white"/>
</svg>
