<svg width="23" height="18" viewBox="0 0 23 18" fill="none" xmlns="http://www.w3.org/2000/svg">
<path d="M4.08986 17.4845V16.3216C4.08986 15.8767 3.81889 15.5854 3.35372 15.5854C3.12114 15.5854 2.86824 15.6622 2.69436 15.9151C2.55888 15.7029 2.36468 15.5854 2.07339 15.5854C1.8792 15.5854 1.685 15.6442 1.53145 15.8564V15.6238H1.125V17.4845H1.53145V16.4571C1.53145 16.1274 1.70533 15.9716 1.9763 15.9716C2.24726 15.9716 2.38275 16.1454 2.38275 16.4571V17.4845H2.7892V16.4571C2.7892 16.1274 2.9834 15.9716 3.23404 15.9716C3.50501 15.9716 3.6405 16.1454 3.6405 16.4571V17.4845H4.08986ZM10.1189 15.6238H9.45956V15.0616H9.05311V15.6238H8.68504V15.9919H9.05311V16.8454C9.05311 17.2722 9.22698 17.5229 9.69215 17.5229C9.86602 17.5229 10.0602 17.4642 10.1957 17.3874L10.0783 17.0374C9.96086 17.1142 9.82537 17.1345 9.72827 17.1345C9.53408 17.1345 9.4573 17.0171 9.4573 16.8251V15.9919H10.1167V15.6238H10.1189ZM13.5693 15.5832C13.3367 15.5832 13.1809 15.7006 13.0838 15.8542V15.6216H12.6773V17.4822H13.0838V16.4345C13.0838 16.1251 13.2193 15.949 13.4722 15.949C13.5489 15.949 13.646 15.9693 13.7251 15.9874L13.8425 15.599C13.7612 15.5832 13.646 15.5832 13.5693 15.5832ZM8.35536 15.7774C8.16117 15.6419 7.8902 15.5832 7.59891 15.5832C7.13374 15.5832 6.82439 15.8158 6.82439 16.1838C6.82439 16.4932 7.05697 16.6693 7.46342 16.7258L7.65762 16.7461C7.86988 16.7845 7.9873 16.8432 7.9873 16.9403C7.9873 17.0758 7.83149 17.1729 7.56052 17.1729C7.28955 17.1729 7.07503 17.0758 6.93955 16.9787L6.74535 17.288C6.95761 17.4438 7.24891 17.5206 7.5402 17.5206C8.08214 17.5206 8.39375 17.2677 8.39375 16.92C8.39375 16.5903 8.14085 16.4164 7.75471 16.3577L7.56052 16.3374C7.38665 16.3171 7.25116 16.2787 7.25116 16.1635C7.25116 16.028 7.38665 15.9513 7.60117 15.9513C7.83375 15.9513 8.06633 16.0483 8.18375 16.1071L8.35536 15.7774ZM19.1693 15.5832C18.9367 15.5832 18.7809 15.7006 18.6838 15.8542V15.6216H18.2774V17.4822H18.6838V16.4345C18.6838 16.1251 18.8193 15.949 19.0722 15.949C19.149 15.949 19.2461 15.9693 19.3251 15.9874L19.4425 15.6035C19.3635 15.5832 19.2483 15.5832 19.1693 15.5832ZM13.9757 16.5542C13.9757 17.1164 14.3641 17.5229 14.9648 17.5229C15.2357 17.5229 15.4299 17.4642 15.6241 17.3106L15.4299 16.9809C15.2741 17.0984 15.1206 17.1548 14.9444 17.1548C14.6148 17.1548 14.3822 16.9222 14.3822 16.5542C14.3822 16.2042 14.6148 15.9716 14.9444 15.9535C15.1183 15.9535 15.2741 16.0122 15.4299 16.1274L15.6241 15.7977C15.4299 15.6419 15.2357 15.5854 14.9648 15.5854C14.3641 15.5832 13.9757 15.9919 13.9757 16.5542ZM17.7354 16.5542V15.6238H17.329V15.8564C17.1935 15.6825 16.9993 15.5854 16.7464 15.5854C16.2225 15.5854 15.8161 15.9919 15.8161 16.5542C15.8161 17.1164 16.2225 17.5229 16.7464 17.5229C17.0173 17.5229 17.2115 17.4258 17.329 17.2519V17.4845H17.7354V16.5542ZM16.2428 16.5542C16.2428 16.2245 16.4551 15.9535 16.8051 15.9535C17.1348 15.9535 17.3673 16.2064 17.3673 16.5542C17.3673 16.8838 17.1348 17.1548 16.8051 17.1548C16.4573 17.1345 16.2428 16.8816 16.2428 16.5542ZM11.3789 15.5832C10.837 15.5832 10.4486 15.9716 10.4486 16.5519C10.4486 17.1345 10.837 17.5206 11.3993 17.5206C11.6702 17.5206 11.9412 17.4438 12.1557 17.2677L11.9615 16.9764C11.8057 17.0938 11.6115 17.1706 11.4196 17.1706C11.1667 17.1706 10.916 17.0532 10.8573 16.7258H12.2325C12.2325 16.6671 12.2325 16.6287 12.2325 16.57C12.2505 15.9716 11.9005 15.5832 11.3789 15.5832ZM11.3789 15.9332C11.6318 15.9332 11.8057 16.089 11.8441 16.378H10.8754C10.9138 16.1274 11.0876 15.9332 11.3789 15.9332ZM21.4771 16.5542V14.8877H21.0706V15.8564C20.9351 15.6825 20.7409 15.5854 20.488 15.5854C19.9641 15.5854 19.5577 15.9919 19.5577 16.5542C19.5577 17.1164 19.9641 17.5229 20.488 17.5229C20.759 17.5229 20.9532 17.4258 21.0706 17.2519V17.4845H21.4771V16.5542ZM19.9845 16.5542C19.9845 16.2245 20.1967 15.9535 20.5467 15.9535C20.8764 15.9535 21.109 16.2064 21.109 16.5542C21.109 16.8838 20.8764 17.1548 20.5467 17.1548C20.1967 17.1345 19.9845 16.8816 19.9845 16.5542ZM6.37729 16.5542V15.6238H5.97083V15.8564C5.83535 15.6825 5.64115 15.5854 5.38825 15.5854C4.86438 15.5854 4.45792 15.9919 4.45792 16.5542C4.45792 17.1164 4.86438 17.5229 5.38825 17.5229C5.65922 17.5229 5.85341 17.4258 5.97083 17.2519V17.4845H6.37729V16.5542ZM4.86663 16.5542C4.86663 16.2245 5.07889 15.9535 5.42889 15.9535C5.75857 15.9535 5.99116 16.2064 5.99116 16.5542C5.99116 16.8838 5.75857 17.1548 5.42889 17.1548C5.07889 17.1345 4.86663 16.8816 4.86663 16.5542Z" fill="white"/>
<path d="M8.62586 6.97746C8.62586 4.74874 9.6736 2.77066 11.2814 1.49259C10.0981 0.562261 8.60553 0 6.97746 0C3.12066 0 0 3.12066 0 6.97746C0 10.8343 3.12066 13.9549 6.97746 13.9549C8.60553 13.9549 10.0981 13.3927 11.2814 12.4623C9.67134 11.2023 8.62586 9.20618 8.62586 6.97746Z" fill="white"/>
<path d="M22.5626 6.97746C22.5626 10.8343 19.4419 13.9549 15.5851 13.9549C13.9571 13.9549 12.4645 13.3927 11.2812 12.4623C12.9093 11.182 13.9367 9.20618 13.9367 6.97746C13.9367 4.74874 12.889 2.77066 11.2812 1.49259C12.4622 0.562261 13.9548 0 15.5829 0C19.4419 0 22.5626 3.14099 22.5626 6.97746Z" fill="white"/>
</svg>
