<svg width="32" height="13" viewBox="0 0 32 13" fill="none" xmlns="http://www.w3.org/2000/svg">
<path d="M5.72341 1.65814C5.35629 2.09256 4.76891 2.4352 4.18152 2.38625C4.1081 1.79886 4.39568 1.17477 4.7322 0.789298C5.09931 0.342641 5.74176 0.0244743 6.26184 0C6.32303 0.611859 6.0844 1.21148 5.72341 1.65814ZM6.25573 2.5025C5.40524 2.45355 4.67713 2.98587 4.2733 2.98587C3.86336 2.98587 3.24538 2.52698 2.57234 2.53921C1.69738 2.55145 0.883606 3.04706 0.436949 3.83635C-0.480839 5.41495 0.198325 7.75225 1.08552 9.03715C1.51994 9.67349 2.04002 10.371 2.7253 10.3465C3.37387 10.3221 3.63085 9.92435 4.41403 9.92435C5.20333 9.92435 5.42972 10.3465 6.115 10.3343C6.82475 10.3221 7.27141 9.69796 7.70583 9.06163C8.20144 8.33963 8.40335 7.636 8.41559 7.59928C8.40335 7.58705 7.04502 7.06697 7.03279 5.50061C7.02055 4.19123 8.10354 3.56714 8.15249 3.53042C7.54063 2.62487 6.58613 2.52698 6.25573 2.5025ZM11.169 0.728112V10.267H12.6496V7.00578H14.6994C16.5717 7.00578 17.8872 5.72088 17.8872 3.86083C17.8872 2.00078 16.5961 0.728112 14.7483 0.728112H11.169ZM12.6496 1.9763H14.3567C15.6416 1.9763 16.3759 2.66159 16.3759 3.86695C16.3759 5.07231 15.6416 5.76371 14.3506 5.76371H12.6496V1.9763ZM20.5916 10.3404C21.5216 10.3404 22.3843 9.86928 22.7759 9.12281H22.8065V10.267H24.1771V5.51896C24.1771 4.14228 23.0757 3.25509 21.3809 3.25509C19.8084 3.25509 18.6459 4.15452 18.603 5.39047H19.9369C20.047 4.80309 20.5916 4.41762 21.338 4.41762C22.2436 4.41762 22.7514 4.8398 22.7514 5.61686V6.14306L20.9036 6.2532C19.1843 6.35721 18.2543 7.06085 18.2543 8.28457C18.2543 9.52052 19.2149 10.3404 20.5916 10.3404ZM20.9893 9.20847C20.2 9.20847 19.6983 8.82912 19.6983 8.24786C19.6983 7.64823 20.1816 7.29947 21.1055 7.24441L22.7514 7.14039V7.67883C22.7514 8.57214 21.9927 9.20847 20.9893 9.20847ZM26.0065 12.8613C27.4505 12.8613 28.1297 12.3106 28.7232 10.6402L31.3236 3.34687H29.8184L28.0746 8.98209H28.044L26.3002 3.34687H24.7522L27.2608 10.2915L27.1262 10.7136C26.8998 11.4295 26.5327 11.7049 25.878 11.7049C25.7618 11.7049 25.5354 11.6926 25.4436 11.6804V12.8246C25.5293 12.849 25.8964 12.8613 26.0065 12.8613Z" fill="white"/>
</svg>
