<svg width="36" height="14" viewBox="0 0 36 14" fill="none" xmlns="http://www.w3.org/2000/svg">
<path d="M16.8812 8.69032H16.4655V7.61505H16.8812C17.2049 7.61505 17.4248 7.85495 17.4248 8.15065C17.4248 8.45053 17.2049 8.69032 16.8812 8.69032ZM16.9211 7.1115H15.9219V10.0293H16.4655V9.19393H16.9171C17.5247 9.19393 17.9724 8.73032 17.9724 8.15065C17.9724 7.57516 17.5247 7.1115 16.9211 7.1115Z" fill="white"/>
<path d="M19.3562 9.58241C18.9565 9.58241 18.6488 9.26267 18.6488 8.85503C18.6488 8.45134 18.9565 8.13562 19.3562 8.13562C19.7559 8.13562 20.0557 8.4593 20.0557 8.85503C20.0557 9.25872 19.7559 9.58241 19.3562 9.58241ZM20.0278 7.97171C19.8599 7.77187 19.584 7.64384 19.2764 7.64384C18.6847 7.64384 18.1172 8.0876 18.1172 8.86299C18.1172 9.62648 18.7047 10.0781 19.2683 10.0781C19.5761 10.0781 19.8558 9.94221 20.0278 9.7264V10.0301H20.5673V7.69186H20.0278V7.97171Z" fill="white"/>
<path d="M22.0123 9.26673L21.3608 7.69197H20.7852L21.7445 9.91427L21.2528 11.1094H21.8005L23.1954 7.69197H22.6278L22.0123 9.26673Z" fill="white"/>
<path d="M31.7237 4.76353H31.7087L31.0814 2.62118H30.0684V5.32227H30.7396L30.7019 3.10598H30.7169L31.3907 5.32227H32.3625V2.62118H31.6866L31.7237 4.76353Z" fill="white"/>
<path d="M19.4429 2.87527L19.4582 2.87503L19.822 5.35156H20.5552L20.0522 2.62243H18.8379L18.332 5.35156H19.0697L19.4429 2.87527Z" fill="white"/>
<path d="M22.9632 2.62243L22.6266 4.7093H22.6111L22.2749 2.62243H21.1617L21.1016 5.35156H21.7847L21.8017 2.89816H21.8168L22.2727 5.35156H22.9652L23.4213 2.8984L23.4363 2.89816L23.4534 5.35156H24.1361L24.0759 2.62243H22.9632Z" fill="white"/>
<path d="M16.9079 5.45801C17.4018 5.45801 17.8078 5.28961 17.8727 4.83396C17.9059 4.59842 17.8815 4.44411 17.8698 4.38668C17.7545 3.81514 16.7191 3.64468 16.6418 3.32507C16.6288 3.26964 16.632 3.21215 16.6389 3.18162C16.6582 3.09402 16.7175 2.99835 16.8882 2.99835C17.048 2.99835 17.1417 3.09694 17.1417 3.24566V3.41473H17.8228V3.22247C17.8228 2.62805 17.2888 2.53511 16.9025 2.53511C16.4175 2.53511 16.0207 2.69586 15.9484 3.14095C15.9286 3.26266 15.9259 3.37163 15.9546 3.50906C16.073 4.06689 17.0429 4.22806 17.1835 4.58136C17.2102 4.64735 17.2017 4.73197 17.1889 4.78321C17.1667 4.87414 17.1049 4.9669 16.923 4.9669C16.7524 4.9669 16.6488 4.86807 16.6488 4.71941L16.6481 4.45491H15.9163L15.916 4.66526C15.916 5.27413 16.395 5.45801 16.9079 5.45801Z" fill="white"/>
<path d="M25.5215 3.33252C25.5083 3.27801 25.5117 3.22119 25.5181 3.19083C25.5375 3.10415 25.5963 3.00939 25.765 3.00939C25.9237 3.00939 26.0162 3.10664 26.0162 3.25421V3.42127H26.6907V3.23126C26.6907 2.64273 26.1618 2.55082 25.7794 2.55082C25.2995 2.55082 24.9065 2.70956 24.835 3.1504C24.8153 3.27096 24.8126 3.37884 24.8413 3.5147C24.9581 4.0673 25.9186 4.22677 26.0578 4.57661C26.0839 4.64218 26.0758 4.72552 26.063 4.77652C26.041 4.86636 25.9799 4.9579 25.7998 4.9579C25.6307 4.9579 25.528 4.86047 25.528 4.71296L25.5276 4.45138H24.8029L24.8027 4.65972C24.8027 5.26246 25.2773 5.44434 25.785 5.44434C26.2739 5.44434 26.6759 5.27776 26.74 4.82654C26.7728 4.59343 26.7488 4.44076 26.7371 4.38351C26.6229 3.81756 25.5977 3.64898 25.5215 3.33252Z" fill="white"/>
<path d="M29.3104 2.62074H28.6196V4.6398C28.6199 4.67483 28.6189 4.71459 28.6132 4.74403C28.5996 4.81117 28.5413 4.94181 28.3515 4.94181H28.3515C28.1615 4.94181 28.1029 4.81117 28.0896 4.74403C28.0838 4.71459 28.0824 4.67483 28.0831 4.6398V2.62074H27.3928V4.57758C27.3915 4.6279 27.3967 4.73056 27.3991 4.7572C27.4469 5.26658 27.8496 5.43164 28.3515 5.43164C28.8532 5.43164 29.2558 5.26658 29.3034 4.7572C29.3062 4.73056 29.3113 4.6279 29.3104 4.57758V2.62074Z" fill="white"/>
<path d="M34.0485 3.81843V4.21635H34.3283V4.6127C34.3288 4.64724 34.3275 4.68542 34.3218 4.7162C34.3095 4.78923 34.2406 4.91434 34.0429 4.91434C33.8456 4.91434 33.7767 4.78923 33.7638 4.71626C33.7586 4.68549 33.7573 4.6473 33.7575 4.6127V3.36502C33.7575 3.32059 33.7607 3.27178 33.7685 3.23584C33.7836 3.16852 33.842 3.03782 34.0404 3.03782C34.2491 3.03782 34.301 3.17568 34.3133 3.23584C34.3214 3.27518 34.3221 3.34007 34.3218 3.33983V3.49281H35.0102V3.40187C35.0097 3.40187 35.0126 3.30911 35.0039 3.22218C34.9535 2.71038 34.5298 2.54781 34.0459 2.54781C33.5616 2.54781 33.1487 2.71196 33.0879 3.22218C33.0822 3.26777 33.0764 3.35337 33.0764 3.40187L33.0762 4.55005C33.0764 4.60147 33.0778 4.63899 33.0856 4.72974C33.1312 5.22692 33.5616 5.4043 34.0456 5.4043C34.5293 5.4043 34.9603 5.22686 35.0054 4.72974C35.0137 4.63899 35.0149 4.60147 35.0153 4.55005V3.81843H34.0485Z" fill="white"/>
<path d="M13.5171 4.78675C13.3493 3.52022 12.901 2.37239 12.1103 1.5317H12.1099C11.2692 0.741182 10.1214 0.292858 8.85475 0.12513C7.64473 -0.0353146 6.8212 0.00434116 6.8212 0.00434116C6.8212 0.00434116 5.99722 -0.0353146 4.78729 0.125084C3.52053 0.292813 2.37275 0.741182 1.53187 1.53166C0.741308 2.37235 0.292757 3.52018 0.124982 4.78675C-0.0354161 5.99636 0.00437619 6.82021 0.00437619 6.82021C0.00437619 6.82021 -0.0354161 7.64374 0.124982 8.85372C0.292757 10.1203 0.741308 11.2678 1.53187 12.1084V12.1087C2.37275 12.8991 3.52053 13.3474 4.78724 13.5154C5.99717 13.6757 6.82116 13.6359 6.82116 13.6359C6.82116 13.6359 7.64468 13.6757 8.85471 13.5154C10.1214 13.3475 11.2692 12.8992 12.1099 12.1087L12.1102 12.1084C12.901 11.2678 13.3493 10.1203 13.5171 8.85372C13.6774 7.64374 13.6377 6.82021 13.6377 6.82021C13.6377 6.82021 13.6774 5.99632 13.5171 4.78675Z" fill="white"/>
<path d="M2.51172 4.82227H3.73649C3.9228 4.82227 4.09421 4.85578 4.25102 4.92266C4.40791 4.98954 4.54327 5.08014 4.65786 5.1946C4.77205 5.30897 4.86188 5.44365 4.92717 5.59881C4.9925 5.75388 5.02524 5.91961 5.02524 6.09585C5.02524 6.27227 4.9925 6.43882 4.92717 6.59571C4.86192 6.75238 4.77205 6.88791 4.65786 7.00215C4.54327 7.11656 4.40695 7.20744 4.24856 7.27418C4.09025 7.34125 3.91788 7.37467 3.73167 7.37467H3.17804V8.39848H2.51172V4.82227ZM3.17804 5.4395V6.75738H3.6875C3.78557 6.75738 3.8754 6.74022 3.9569 6.70594C4.03849 6.67165 4.10878 6.62421 4.1677 6.56375C4.22661 6.50347 4.27228 6.43317 4.30483 6.35313C4.33761 6.27309 4.354 6.18745 4.354 6.09585C4.354 6.00461 4.33761 5.91874 4.30483 5.8387C4.27228 5.75866 4.22661 5.68946 4.1677 5.63054C4.10878 5.57176 4.03853 5.52519 3.9569 5.49095C3.8754 5.45667 3.78557 5.4395 3.6875 5.4395H3.17804Z" fill="#150D1F"/>
<path d="M6.56542 8.40295C6.39228 8.40295 6.22159 8.37099 6.05349 8.30643C5.88499 8.24192 5.73406 8.14826 5.60012 8.02538C5.46617 7.90264 5.35836 7.75225 5.27668 7.57433C5.19505 7.39667 5.1543 7.19425 5.1543 6.96765C5.1543 6.73778 5.19427 6.53413 5.27427 6.35615C5.35431 6.17832 5.46039 6.02784 5.59288 5.9051C5.72505 5.78244 5.87702 5.68874 6.04835 5.62423C6.21995 5.55976 6.39551 5.52734 6.57516 5.52734C6.76443 5.52734 6.93926 5.56172 7.09939 5.63019C7.25933 5.69871 7.39177 5.792 7.4964 5.91042V5.5324H8.1578V8.39822H7.4964V7.99101C7.39177 8.11913 7.25796 8.2197 7.09438 8.293C6.93116 8.36662 6.75482 8.40295 6.56542 8.40295ZM6.67319 7.79578C6.79721 7.79578 6.91153 7.77415 7.01625 7.73127C7.12069 7.68833 7.21048 7.62846 7.28551 7.55179C7.36068 7.47498 7.42023 7.38602 7.46439 7.28481C7.50865 7.18396 7.53073 7.07497 7.53073 6.95809C7.53073 6.84473 7.50865 6.73728 7.46439 6.63607C7.42023 6.53504 7.36072 6.44676 7.28551 6.37159C7.21048 6.29633 7.12069 6.23737 7.01625 6.19453C6.91153 6.15155 6.79716 6.13006 6.67319 6.13006C6.55226 6.13006 6.43885 6.15155 6.33259 6.19453C6.22637 6.23737 6.13422 6.29555 6.05582 6.36913C5.97741 6.44293 5.91618 6.53035 5.87202 6.6316C5.8279 6.73281 5.80595 6.84172 5.80595 6.95805C5.80595 7.07487 5.8279 7.18455 5.87202 7.28727C5.91618 7.38998 5.97741 7.47867 6.05582 7.55388C6.13417 7.62937 6.22637 7.68824 6.33259 7.73122C6.43885 7.7742 6.55226 7.79578 6.67319 7.79578Z" fill="#150D1F"/>
<path d="M9.54697 8.27412L8.37109 5.53223H9.07661L9.8751 7.49311L10.6299 5.53223H11.3256L9.6154 9.71584H8.94453L9.54697 8.27412Z" fill="#150D1F"/>
</svg>
