<svg width="32" height="11" viewBox="0 0 32 11" fill="none" xmlns="http://www.w3.org/2000/svg">
<path d="M13.4594 9.90741H10.9434L12.5171 0.176758H15.033L13.4594 9.90741Z" fill="white"/>
<path d="M22.5806 0.414272C22.0844 0.217386 21.2972 0 20.3239 0C17.8393 0 16.0896 1.32496 16.0789 3.21924C16.0582 4.61684 17.3316 5.3931 18.284 5.85911C19.2574 6.3353 19.5883 6.6461 19.5883 7.07056C19.5784 7.72244 18.8017 8.02293 18.0773 8.02293C17.0728 8.02293 16.5345 7.86801 15.7166 7.50533L15.3853 7.34986L15.0332 9.53418C15.6233 9.80302 16.7105 10.0416 17.8393 10.052C20.4793 10.052 22.198 8.74759 22.2184 6.72893C22.2284 5.62122 21.556 4.77245 20.1064 4.07888C19.2264 3.63365 18.6875 3.33344 18.6875 2.87789C18.6978 2.46376 19.1433 2.03958 20.1367 2.03958C20.9546 2.0188 21.5556 2.21541 22.0109 2.41216L22.2385 2.51549L22.5806 0.414272Z" fill="white"/>
<path d="M25.924 6.46018C26.1312 5.90117 26.9285 3.73763 26.9285 3.73763C26.918 3.7584 27.1353 3.16829 27.2595 2.80603L27.4354 3.64448C27.4354 3.64448 27.9118 5.97368 28.0153 6.46018C27.6221 6.46018 26.4209 6.46018 25.924 6.46018ZM29.0297 0.176758H27.0836C26.4834 0.176758 26.0274 0.352593 25.7685 0.984114L22.0312 9.90727H24.6713C24.6713 9.90727 25.1059 8.70628 25.1993 8.44762C25.4889 8.44762 28.0571 8.44762 28.4297 8.44762C28.5019 8.78924 28.7299 9.90727 28.7299 9.90727H31.0595L29.0297 0.176758Z" fill="white"/>
<path d="M8.84079 0.176758L6.37675 6.81213L6.1075 5.4664C5.65195 3.9136 4.22326 2.22652 2.62891 1.38765L4.88587 9.89709H7.54651L11.5013 0.176758H8.84079Z" fill="white"/>
<path d="M4.08948 0.176758H0.0414133L0 0.373368C3.15774 1.18086 5.24905 3.12729 6.10828 5.46681L5.22828 0.994708C5.0834 0.373231 4.63817 0.197258 4.08948 0.176758Z" fill="white"/>
</svg>
