<svg width="14" height="16" viewBox="0 0 14 16" fill="none" xmlns="http://www.w3.org/2000/svg">
<path d="M10.9209 3.18048C10.861 3.13291 10.7448 3.1623 10.6239 3.15351C10.4937 3.96449 10.8287 4.86742 10.115 5.62177C9.41954 3.64813 8.58035 1.87618 7.00363 0.623216C6.64504 0.338255 6.24649 -0.144112 5.80527 0.0413153C5.30411 0.251927 5.54413 0.890599 5.50642 1.34454C5.32753 3.49804 4.28136 5.20013 2.99893 6.9703C2.64799 6.05046 2.64326 5.16177 1.76331 4.57646C1.73086 6.02918 1.2525 7.21818 0.720981 8.3883C0.409921 9.07308 0.172928 9.7822 0.0484875 10.5296C-0.334141 12.8275 1.59734 15.5316 4.09344 15.9016C2.26582 13.2416 4.35681 11.5789 5.30585 9.5722C5.82178 10.1155 5.8103 10.722 5.8288 11.4003C6.69208 10.5481 7.15164 9.48401 7.46415 8.33106C7.53281 8.07776 7.48211 7.70206 7.76744 7.61656C8.10769 7.51461 8.26747 7.88378 8.4477 8.10605C10.1463 10.2008 10.4438 12.5652 9.67264 15.1324C9.59743 15.3828 9.36243 15.6922 9.56677 15.8956C9.84708 16.1748 10.1111 15.8217 10.3374 15.676C14.9723 12.6914 15.254 6.62042 10.9209 3.18048Z" fill="url(#paint0_linear_2119_7388)"/>
<defs>
<linearGradient id="paint0_linear_2119_7388" x1="-2.3054" y1="0.0114526" x2="6.1693" y2="16.1485" gradientUnits="userSpaceOnUse">
<stop stop-color="white" stop-opacity="0"/>
<stop offset="1" stop-color="white"/>
</linearGradient>
</defs>
</svg>
