<svg width="81" height="20" viewBox="0 0 81 20" fill="none" xmlns="http://www.w3.org/2000/svg">
<path d="M37.77 8.168C37.546 7.75733 37.238 7.44467 36.846 7.23C36.454 7.01533 35.9967 6.908 35.474 6.908C34.8953 6.908 34.382 7.03867 33.934 7.3C33.486 7.56133 33.136 7.93467 32.884 8.42C32.632 8.90533 32.506 9.46533 32.506 10.1C32.506 10.7533 32.632 11.3227 32.884 11.808C33.1453 12.2933 33.5047 12.6667 33.962 12.928C34.4193 13.1893 34.9513 13.32 35.558 13.32C36.3047 13.32 36.916 13.124 37.392 12.732C37.868 12.3307 38.1807 11.7753 38.33 11.066H34.97V9.568H40.262V11.276C40.1313 11.9573 39.8513 12.5873 39.422 13.166C38.9927 13.7447 38.4373 14.2113 37.756 14.566C37.084 14.9113 36.328 15.084 35.488 15.084C34.5453 15.084 33.6913 14.874 32.926 14.454C32.17 14.0247 31.5727 13.432 31.134 12.676C30.7047 11.92 30.49 11.0613 30.49 10.1C30.49 9.13867 30.7047 8.28 31.134 7.524C31.5727 6.75867 32.17 6.166 32.926 5.746C33.6913 5.31667 34.5407 5.102 35.474 5.102C36.5753 5.102 37.532 5.37267 38.344 5.914C39.156 6.446 39.716 7.19733 40.024 8.168H37.77ZM45.1561 15.126C44.4094 15.126 43.7374 14.9627 43.1401 14.636C42.5428 14.3 42.0714 13.8287 41.7261 13.222C41.3901 12.6153 41.2221 11.9153 41.2221 11.122C41.2221 10.3287 41.3948 9.62867 41.7401 9.022C42.0948 8.41533 42.5754 7.94867 43.1821 7.622C43.7888 7.286 44.4654 7.118 45.2121 7.118C45.9588 7.118 46.6354 7.286 47.2421 7.622C47.8488 7.94867 48.3248 8.41533 48.6701 9.022C49.0248 9.62867 49.2021 10.3287 49.2021 11.122C49.2021 11.9153 49.0201 12.6153 48.6561 13.222C48.3014 13.8287 47.8161 14.3 47.2001 14.636C46.5934 14.9627 45.9121 15.126 45.1561 15.126ZM45.1561 13.418C45.5108 13.418 45.8421 13.334 46.1501 13.166C46.4674 12.9887 46.7194 12.7273 46.9061 12.382C47.0928 12.0367 47.1861 11.6167 47.1861 11.122C47.1861 10.3847 46.9901 9.82 46.5981 9.428C46.2154 9.02667 45.7441 8.826 45.1841 8.826C44.6241 8.826 44.1528 9.02667 43.7701 9.428C43.3968 9.82 43.2101 10.3847 43.2101 11.122C43.2101 11.8593 43.3921 12.4287 43.7561 12.83C44.1294 13.222 44.5961 13.418 45.1561 13.418ZM54.0838 15.126C53.3372 15.126 52.6652 14.9627 52.0678 14.636C51.4705 14.3 50.9992 13.8287 50.6538 13.222C50.3178 12.6153 50.1498 11.9153 50.1498 11.122C50.1498 10.3287 50.3225 9.62867 50.6678 9.022C51.0225 8.41533 51.5032 7.94867 52.1098 7.622C52.7165 7.286 53.3932 7.118 54.1398 7.118C54.8865 7.118 55.5632 7.286 56.1698 7.622C56.7765 7.94867 57.2525 8.41533 57.5978 9.022C57.9525 9.62867 58.1298 10.3287 58.1298 11.122C58.1298 11.9153 57.9478 12.6153 57.5838 13.222C57.2292 13.8287 56.7438 14.3 56.1278 14.636C55.5212 14.9627 54.8398 15.126 54.0838 15.126ZM54.0838 13.418C54.4385 13.418 54.7698 13.334 55.0778 13.166C55.3952 12.9887 55.6472 12.7273 55.8338 12.382C56.0205 12.0367 56.1138 11.6167 56.1138 11.122C56.1138 10.3847 55.9178 9.82 55.5258 9.428C55.1432 9.02667 54.6718 8.826 54.1118 8.826C53.5518 8.826 53.0805 9.02667 52.6978 9.428C52.3245 9.82 52.1378 10.3847 52.1378 11.122C52.1378 11.8593 52.3198 12.4287 52.6838 12.83C53.0572 13.222 53.5238 13.418 54.0838 13.418ZM62.6056 7.118C63.1842 7.118 63.6929 7.23467 64.1316 7.468C64.5702 7.692 64.9156 7.986 65.1676 8.35V7.244H67.1416V15.056C67.1416 15.7747 66.9969 16.414 66.7076 16.974C66.4182 17.5433 65.9842 17.9913 65.4056 18.318C64.8269 18.654 64.1269 18.822 63.3056 18.822C62.2042 18.822 61.2989 18.5653 60.5896 18.052C59.8896 17.5387 59.4929 16.8387 59.3996 15.952H61.3456C61.4482 16.3067 61.6676 16.5867 62.0036 16.792C62.3489 17.0067 62.7642 17.114 63.2496 17.114C63.8189 17.114 64.2809 16.9413 64.6356 16.596C64.9902 16.26 65.1676 15.7467 65.1676 15.056V13.852C64.9156 14.216 64.5656 14.5193 64.1176 14.762C63.6789 15.0047 63.1749 15.126 62.6056 15.126C61.9522 15.126 61.3549 14.958 60.8136 14.622C60.2722 14.286 59.8429 13.8147 59.5256 13.208C59.2176 12.592 59.0636 11.8873 59.0636 11.094C59.0636 10.31 59.2176 9.61467 59.5256 9.008C59.8429 8.40133 60.2676 7.93467 60.7996 7.608C61.3409 7.28133 61.9429 7.118 62.6056 7.118ZM65.1676 11.122C65.1676 10.646 65.0742 10.24 64.8876 9.904C64.7009 9.55867 64.4489 9.29733 64.1316 9.12C63.8142 8.93333 63.4736 8.84 63.1096 8.84C62.7456 8.84 62.4096 8.92867 62.1016 9.106C61.7936 9.28333 61.5416 9.54467 61.3456 9.89C61.1589 10.226 61.0656 10.6273 61.0656 11.094C61.0656 11.5607 61.1589 11.9713 61.3456 12.326C61.5416 12.6713 61.7936 12.9373 62.1016 13.124C62.4189 13.3107 62.7549 13.404 63.1096 13.404C63.4736 13.404 63.8142 13.3153 64.1316 13.138C64.4489 12.9513 64.7009 12.69 64.8876 12.354C65.0742 12.0087 65.1676 11.598 65.1676 11.122ZM71.0158 4.64V15H69.0558V4.64H71.0158ZM80.1623 10.954C80.1623 11.234 80.1437 11.486 80.1063 11.71H74.4363C74.483 12.27 74.679 12.7087 75.0243 13.026C75.3697 13.3433 75.7943 13.502 76.2983 13.502C77.0263 13.502 77.5443 13.1893 77.8523 12.564H79.9663C79.7423 13.3107 79.313 13.9267 78.6783 14.412C78.0437 14.888 77.2643 15.126 76.3403 15.126C75.5937 15.126 74.9217 14.9627 74.3243 14.636C73.7363 14.3 73.2743 13.8287 72.9383 13.222C72.6117 12.6153 72.4483 11.9153 72.4483 11.122C72.4483 10.3193 72.6117 9.61467 72.9383 9.008C73.265 8.40133 73.7223 7.93467 74.3103 7.608C74.8983 7.28133 75.575 7.118 76.3403 7.118C77.0777 7.118 77.7357 7.27667 78.3143 7.594C78.9023 7.91133 79.355 8.364 79.6723 8.952C79.999 9.53067 80.1623 10.198 80.1623 10.954ZM78.1323 10.394C78.123 9.89 77.941 9.48867 77.5863 9.19C77.2317 8.882 76.7977 8.728 76.2843 8.728C75.799 8.728 75.3883 8.87733 75.0523 9.176C74.7257 9.46533 74.525 9.87133 74.4503 10.394H78.1323Z" fill="white"/>
<path d="M0 10C0 4.486 4.486 0 10 0C12.227 0 14.3348 0.716476 16.0956 2.072L13.7718 5.09067C12.683 4.25257 11.3788 3.80952 10 3.80952C6.58657 3.80952 3.80952 6.58657 3.80952 10C3.80952 13.4134 6.58657 16.1905 10 16.1905C12.7492 16.1905 15.0855 14.3892 15.8907 11.9048H10V8.09524H20V10C20 15.514 15.514 20 10 20C4.486 20 0 15.514 0 10Z" fill="white"/>
</svg>
