<svg width="9" height="13" viewBox="0 0 9 13" fill="none" xmlns="http://www.w3.org/2000/svg">
<path d="M7.61538 5.24007C7.58301 5.19952 7.54378 5.20749 7.52322 5.21576C7.50599 5.22275 7.46653 5.24506 7.47199 5.30098C7.47855 5.36813 7.48223 5.43659 7.48293 5.50449C7.48586 5.78616 7.37287 6.06211 7.17295 6.26159C6.97429 6.45977 6.71301 6.56656 6.43481 6.56346C6.0548 6.55861 5.73961 6.3604 5.52331 5.99025C5.34446 5.68418 5.42306 5.28943 5.50629 4.87147C5.55499 4.62683 5.60536 4.37385 5.60536 4.13307C5.60536 2.25834 4.34504 1.17675 3.59377 0.698883C3.57824 0.689016 3.56345 0.685547 3.55035 0.685547C3.52904 0.685547 3.51217 0.694734 3.50385 0.700359C3.48772 0.711281 3.46192 0.736172 3.47021 0.780234C3.75737 2.30512 2.90087 3.22225 1.99408 4.19321C1.05939 5.19406 0 6.32845 0 8.37435C0 10.7516 1.93398 12.6855 4.31119 12.6855C6.2685 12.6855 7.99422 11.3209 8.50778 9.36704C8.85798 8.03479 8.491 6.33774 7.61538 5.24007ZM4.41875 11.7653C3.82348 11.7925 3.25738 11.579 2.82498 11.1655C2.39722 10.7565 2.15188 10.1857 2.15188 9.59943C2.15188 8.49925 2.57254 7.6916 3.70395 6.61938C3.72247 6.60183 3.74143 6.59627 3.75795 6.59627C3.77293 6.59627 3.78591 6.60084 3.79484 6.60513C3.81366 6.6142 3.8446 6.63666 3.84043 6.68522C3.79998 7.15596 3.80068 7.54668 3.84249 7.84659C3.94937 8.61264 4.51015 9.12735 5.238 9.12735C5.59486 9.12735 5.93477 8.99305 6.19514 8.74919C6.22535 8.72088 6.2591 8.72448 6.27204 8.72723C6.28917 8.73093 6.31212 8.74143 6.32414 8.77042C6.43209 9.03107 6.48726 9.30775 6.48811 9.59272C6.49155 10.7394 5.56324 11.714 4.41875 11.7653Z" fill="white"/>
</svg>
