<svg width="19" height="13" viewBox="0 0 19 13" fill="none" xmlns="http://www.w3.org/2000/svg">
<path d="M13.1266 2.23958C14.0754 3.47223 14.588 4.96917 14.588 6.50729C14.588 8.04541 14.0754 9.54235 13.1266 10.775C13.0581 10.8649 12.9686 10.9378 12.8655 10.9878C12.7623 11.0378 12.6485 11.0635 12.5332 11.0627C12.3728 11.062 12.2168 11.0116 12.0881 10.9189C11.9307 10.8044 11.8267 10.634 11.7989 10.4452C11.771 10.2563 11.8217 10.0645 11.9398 9.91187C12.6959 8.92822 13.1044 7.73415 13.1044 6.50729C13.1044 5.28043 12.6959 4.08636 11.9398 3.10271C11.8217 2.9501 11.771 2.75827 11.7989 2.56942C11.8267 2.38057 11.9307 2.21018 12.0881 2.09572C12.2455 1.98126 12.4433 1.93212 12.6381 1.9591C12.8328 1.98607 13.0086 2.08697 13.1266 2.23958ZM17.0828 0.321504C16.9739 0.162534 16.8044 0.0520065 16.6115 0.0142371C16.4186 -0.0235323 16.2181 0.0145501 16.0542 0.120106C15.8903 0.225662 15.7763 0.390046 15.7373 0.577094C15.6984 0.764143 15.7376 0.958534 15.8465 1.1175C16.9435 2.69947 17.5295 4.56258 17.5295 6.46893C17.5295 8.37528 16.9435 10.2384 15.8465 11.8204C15.7497 11.9761 15.7173 12.1615 15.7559 12.3395C15.7944 12.5174 15.901 12.6746 16.0542 12.7794C16.1728 12.8606 16.3145 12.9042 16.4597 12.9041C16.5834 12.9044 16.7051 12.8747 16.814 12.8178C16.9228 12.7608 17.0152 12.6784 17.0828 12.578C18.3278 10.7705 18.9947 8.64682 19 6.47327C19.0052 4.29972 18.3486 2.17303 17.1125 0.359865L17.0828 0.321504ZM6.86594 2.09572C6.71228 1.99577 6.52564 1.95511 6.34265 1.98172C6.15966 2.00834 5.99354 2.10031 5.87689 2.23958C4.93263 3.47407 4.42285 4.97031 4.42285 6.50729C4.42285 8.04427 4.93263 9.54051 5.87689 10.775C5.99354 10.9143 6.15966 11.0062 6.34265 11.0329C6.52564 11.0595 6.71228 11.0188 6.86594 10.9189C7.02332 10.8044 7.12737 10.634 7.1552 10.4452C7.18302 10.2563 7.13233 10.0645 7.01429 9.91187C6.25813 8.92822 5.84966 7.73415 5.84966 6.50729C5.84966 5.28043 6.25813 4.08636 7.01429 3.10271C7.07274 3.02714 7.11527 2.94116 7.13944 2.84965C7.16362 2.75815 7.16897 2.66293 7.1552 2.56942C7.14142 2.47591 7.10878 2.38595 7.05915 2.30468C7.00952 2.2234 6.94387 2.1524 6.86594 2.09572ZM2.90974 0.177648C2.74916 0.0837961 2.55787 0.0523939 2.37438 0.0897591C2.19088 0.127124 2.02878 0.230484 1.92069 0.379046C0.668337 2.19926 0 4.33836 0 6.52647C0 8.71458 0.668337 10.8537 1.92069 12.6739C1.98829 12.7743 2.08071 12.8567 2.18953 12.9137C2.29836 12.9706 2.42014 13.0003 2.54379 13C2.68921 13.0014 2.83129 12.9577 2.9493 12.8753C3.10251 12.7705 3.20911 12.6133 3.24764 12.4354C3.28618 12.2574 3.25379 12.072 3.157 11.9163C2.05997 10.3343 1.47405 8.47119 1.47405 6.56483C1.47405 4.65848 2.05997 2.79538 3.157 1.21341C3.2176 1.12809 3.25847 1.03108 3.27683 0.92902C3.29518 0.826963 3.29058 0.722265 3.26335 0.622091C3.23611 0.521917 3.18688 0.428629 3.11902 0.348611C3.05117 0.268593 2.96628 0.203733 2.87018 0.158468L2.90974 0.177648ZM9.38801 5.30849C9.14349 5.30849 8.90446 5.3788 8.70115 5.51053C8.49784 5.64225 8.33938 5.82948 8.24581 6.04853C8.15223 6.26758 8.12775 6.50862 8.17545 6.74116C8.22316 6.97371 8.34091 7.18731 8.51381 7.35497C8.68671 7.52262 8.907 7.6368 9.14682 7.68305C9.38664 7.72931 9.63522 7.70557 9.86112 7.61483C10.087 7.5241 10.2801 7.37045 10.416 7.17331C10.5518 6.97616 10.6243 6.74439 10.6243 6.50729C10.6243 6.18935 10.4941 5.88443 10.2622 5.65961C10.0304 5.4348 9.7159 5.30849 9.38801 5.30849Z" fill="url(#paint0_linear_2119_7438)"/>
<defs>
<linearGradient id="paint0_linear_2119_7438" x1="9.5" y1="0" x2="9.5" y2="13" gradientUnits="userSpaceOnUse">
<stop stop-color="white" stop-opacity="0"/>
<stop offset="1" stop-color="white"/>
</linearGradient>
</defs>
</svg>
