<svg width="149" height="28" viewBox="0 0 149 28" fill="none" xmlns="http://www.w3.org/2000/svg">
<path d="M33.1237 10.5071C32.0461 9.49036 30.8151 9.15219 29.3678 9.15219C27.5822 9.15219 26.597 9.70679 26.597 10.6604C26.597 11.6456 27.4898 12.2002 29.4309 12.3242C32.2941 12.5091 35.9283 13.1561 35.9283 17.1894C35.9283 19.8677 33.7415 22.1785 29.3993 22.1785C26.9983 22.1785 24.5951 21.7772 22.3789 19.4687L24.2276 16.7903C25.3052 17.992 27.7694 18.8847 29.4625 18.9141C30.8783 18.9456 32.2039 18.2062 32.2039 17.097C32.2039 16.0509 31.3427 15.618 29.1852 15.4963C26.322 15.2799 22.9042 14.2338 22.9042 10.7844C22.9042 7.27421 26.5384 6.04102 29.3092 6.04102C31.6809 6.04102 33.4664 6.50318 35.2226 8.04298L33.1237 10.5071Z" fill="white"/>
<path d="M38.3281 27.9996V6.47391H41.8383L42.0841 8.56832C43.2542 6.87521 45.2877 6.13574 47.0101 6.13574C51.6904 6.13574 54.8016 9.61439 54.8016 14.0805C54.8016 18.5151 51.9993 22.0253 47.1341 22.0253C45.5334 22.0253 43.1617 21.5315 42.0841 19.87V27.9996H38.3281ZM51.0456 14.0805C51.0456 11.7088 49.4449 9.76995 46.7351 9.76995C44.0252 9.76995 42.4245 11.7111 42.4245 14.0805C42.4245 16.45 44.1807 18.3911 46.7351 18.3911C49.2894 18.3911 51.0456 16.4522 51.0456 14.0805Z" fill="white"/>
<path d="M61.6689 2.19304C61.6689 5.11935 57.2344 5.11935 57.2344 2.19304C57.2344 -0.731013 61.6689 -0.731013 61.6689 2.19304ZM57.5748 6.41342V21.6559H61.3308V6.41342H57.5748Z" fill="white"/>
<path d="M75.899 21.6559V13.7111C75.899 11.4025 74.6365 9.6463 72.2355 9.6463C69.9269 9.6463 68.3556 11.5874 68.3556 13.896V21.6559H64.6289V6.44494H67.9858L68.2316 8.50779C69.7714 6.99955 71.3112 6.22852 73.2207 6.22852C76.7918 6.22852 79.6572 8.90683 79.6572 13.6796V21.6559H75.899Z" fill="white"/>
<path d="M86.0912 15.4045C86.3369 17.2825 87.9692 18.6375 90.6182 18.6375C92.0047 18.6375 93.8218 18.1144 94.683 17.2216L97.084 19.5933C95.4833 21.2572 92.8659 22.0575 90.5551 22.0575C85.3202 22.0575 82.209 18.8246 82.209 13.9594C82.209 9.34 85.3495 6.01465 90.2778 6.01465C95.3593 6.01465 98.5314 9.15513 97.9452 15.4068H86.0912V15.4045ZM94.3448 12.2956C94.0991 10.3252 92.5593 9.34 90.404 9.34C88.3727 9.34 86.7089 10.3252 86.1543 12.2956H94.3448Z" fill="white"/>
<path d="M115.93 14.0812C115.93 18.4548 112.943 21.9944 108.017 21.9944C103.091 21.9944 100.133 18.4526 100.133 14.0812C100.133 9.73905 103.152 6.16797 107.985 6.16797C112.819 6.16572 115.93 9.73905 115.93 14.0812ZM103.889 14.0812C103.889 16.3897 105.275 18.5473 108.014 18.5473C110.756 18.5473 112.14 16.392 112.14 14.0812C112.14 11.8019 110.539 9.58575 108.014 9.58575C105.305 9.58575 103.889 11.8019 103.889 14.0812Z" fill="white"/>
<path d="M122.858 19.7145C122.858 22.6408 118.424 22.6408 118.424 19.7145C118.424 16.7905 122.858 16.7905 122.858 19.7145Z" fill="white"/>
<path d="M130.063 2.19304C130.063 5.11935 125.629 5.11935 125.629 2.19304C125.629 -0.731013 130.063 -0.731013 130.063 2.19304ZM125.969 6.41342V21.6559H129.725V6.41342H125.969Z" fill="white"/>
<path d="M148.539 14.0812C148.539 18.4548 145.552 21.9944 140.626 21.9944C135.7 21.9944 132.742 18.4526 132.742 14.0812C132.742 9.73905 135.761 6.16797 140.595 6.16797C145.43 6.16572 148.539 9.73905 148.539 14.0812ZM136.5 14.0812C136.5 16.3897 137.887 18.5473 140.626 18.5473C143.368 18.5473 144.752 16.392 144.752 14.0812C144.752 11.8019 143.151 9.58575 140.626 9.58575C137.916 9.58575 136.5 11.8019 136.5 14.0812Z" fill="white"/>
<path d="M16.1245 9.57193L16.3139 9.38256C17.4637 8.23278 17.9078 6.60505 17.4997 5.02692C17.0962 3.46232 15.9306 2.26519 14.3818 1.82106C10.4365 0.691567 6.18678 1.78724 3.29429 4.67973C-0.797579 8.7716 -1.07713 15.2532 2.45337 19.6742L2.264 19.8636C1.11422 21.0134 0.670087 22.6434 1.07815 24.2193C1.48395 25.7839 2.64726 26.981 4.19608 27.4251C5.20834 27.7159 6.25893 27.8625 7.31628 27.8625C10.813 27.8625 14.0594 26.2753 16.2214 23.5068C17.4817 21.8926 18.273 19.9696 18.5075 17.9428C18.8569 14.9015 17.9957 11.9143 16.1245 9.57193ZM10.2245 15.1766C10.5875 15.9183 10.6484 16.7863 10.3981 17.6249C10.3598 17.7534 10.3102 17.8774 10.2493 17.9969C9.73758 18.9934 8.87412 19.6314 7.82128 19.7982C7.23286 19.8907 6.63768 19.8163 6.09886 19.5998L7.72208 17.9766C8.7411 16.9576 8.99586 15.3907 8.35333 14.0764C7.74462 12.8319 7.99487 11.3394 8.97106 10.361C9.58202 9.75004 10.3959 9.41413 11.2616 9.41413C11.6854 9.41413 12.098 9.49529 12.479 9.64859L10.8558 11.2718C9.83452 12.2931 9.57977 13.8622 10.2245 15.1766ZM5.07533 6.46527C6.73462 4.80372 8.97106 3.90645 11.2639 3.90645C12.071 3.90645 12.8848 4.01691 13.6852 4.24687C14.375 4.44526 14.8733 4.95928 15.0536 5.65817C15.2362 6.36157 15.0378 7.08751 14.5261 7.59702L14.3886 7.7368L14.3457 7.77963C13.4327 7.20023 12.3708 6.88911 11.2616 6.88911C9.7218 6.88911 8.27443 7.4888 7.18777 8.57546C5.44957 10.3137 5.00544 12.9694 6.08533 15.1811C6.25442 15.526 6.19355 15.9318 5.93654 16.1911L4.24794 17.8797C1.69136 14.4574 1.96866 9.57419 5.07533 6.46527ZM15.9983 17.6542C15.8179 19.2188 15.2069 20.7068 14.2307 21.9535C12.5489 24.1065 10.0284 25.3397 7.31177 25.3397C6.49114 25.3397 5.67502 25.2247 4.88821 24.9993C4.19834 24.8009 3.7001 24.2869 3.51974 23.588C3.33713 22.8846 3.53552 22.1587 4.04503 21.6469L4.2299 21.462C5.39997 22.1992 6.81578 22.5036 8.20905 22.2849C10.0532 21.9963 11.6156 20.8511 12.4925 19.1467C12.6233 18.8919 12.7315 18.6214 12.8149 18.3464C13.2501 16.8967 13.1351 15.375 12.4903 14.0629C12.3212 13.7179 12.3798 13.3121 12.6391 13.0528L14.3254 11.3665C15.6578 13.1543 16.2598 15.3817 15.9983 17.6542Z" fill="url(#paint0_linear_2119_7527)"/>
<defs>
<linearGradient id="paint0_linear_2119_7527" x1="3.24805" y1="26.1263" x2="12.0131" y2="9.44197" gradientUnits="userSpaceOnUse">
<stop stop-color="#142AA2"/>
<stop offset="1" stop-color="#9E41FE"/>
</linearGradient>
</defs>
</svg>
