<svg width="20" height="20" viewBox="0 0 20 20" fill="none" xmlns="http://www.w3.org/2000/svg">
<path fill-rule="evenodd" clip-rule="evenodd" d="M1.52269 0H7.26476C8.10442 0 8.78731 0.683028 8.78744 1.52269V7.26476C8.78744 8.10442 8.10442 8.78745 7.26476 8.78745H1.52269C0.683028 8.78745 0 8.10442 0 7.26476V1.52269C0 0.683028 0.683028 0 1.52269 0ZM12.7353 0H18.4773C19.317 0 20 0.683028 20 1.52269V7.26476C20 8.10442 19.317 8.78745 18.4773 8.78745H12.7353C11.8956 8.78745 11.2126 8.10442 11.2126 7.26476V1.52269C11.2126 0.683028 11.8956 0 12.7353 0ZM7.26476 11.2126H1.52269C0.683028 11.2126 0 11.8955 0 12.7352V18.4773C0 19.3169 0.683028 19.9999 1.52269 19.9999H7.26476C8.10442 19.9999 8.78744 19.3169 8.78744 18.4773V12.7352C8.78731 11.8955 8.10442 11.2126 7.26476 11.2126ZM12.7353 11.2126H18.4773C19.317 11.2126 20 11.8955 20 12.7352V18.4773C20 19.3169 19.317 19.9999 18.4773 20H12.7353C11.8956 20 11.2126 19.317 11.2126 18.4773V12.7353C11.2126 11.8956 11.8956 11.2126 12.7353 11.2126Z" fill="#524267"/>
</svg>
