<svg width="20" height="17" viewBox="0 0 20 17" fill="none" xmlns="http://www.w3.org/2000/svg">
<path fill-rule="evenodd" clip-rule="evenodd" d="M10.2575 0.00436911C8.6492 -0.0491919 7.02426 0.389605 5.62137 1.32604C4.04572 2.37891 2.94458 3.93368 2.43738 5.67177C2.29732 5.65467 2.12959 5.66222 1.93044 5.71855C1.18687 5.92952 0.627624 6.53881 0.376164 7.07542C0.0500199 7.77473 -0.0875287 8.6996 0.0575637 9.6544C0.20165 10.6062 0.603735 11.3907 1.10665 11.8778C1.61108 12.3651 2.18064 12.5236 2.74643 12.4046C3.58882 12.2248 4.00649 12.0903 3.88856 11.3055L3.31749 7.50115C3.43266 5.44219 4.4986 3.50394 6.28145 2.31202C8.6678 0.718013 11.7965 0.820105 14.0727 2.5675C15.6561 3.78155 16.5755 5.60061 16.6816 7.5102L16.2823 10.1714C15.3916 12.6088 13.1835 14.2971 10.6284 14.5367H8.92706C8.48801 14.5367 8.13446 14.8903 8.13446 15.3288V15.7468C8.13446 16.1856 8.48801 16.5391 8.92706 16.5391H11.0723C11.5111 16.5391 11.8631 16.1856 11.8631 15.7468V15.5283C13.7898 15.058 15.4716 13.8739 16.5667 12.2226L17.2539 12.4049C17.8132 12.55 18.3895 12.3651 18.8937 11.8781C19.3966 11.3907 19.7984 10.6064 19.9428 9.65465C20.0884 8.69986 19.9468 7.77649 19.6244 7.07567C19.3008 6.37486 18.8187 5.92977 18.2623 5.77009C18.0292 5.70296 17.7762 5.67831 17.5592 5.67177C17.1005 4.10015 16.1563 2.67085 14.7954 1.62729C13.4574 0.600581 11.8659 0.0571757 10.2575 0.00436911Z" fill="#524267"/>
<path fill-rule="evenodd" clip-rule="evenodd" d="M12.7679 6.84876C13.3349 6.84876 13.7946 7.30843 13.7958 7.87698C13.7946 8.44402 13.3349 8.90495 12.7679 8.90495C12.1993 8.90495 11.7384 8.44402 11.7384 7.87698C11.7384 7.30868 12.1996 6.84876 12.7679 6.84876ZM9.9993 6.84876C10.5676 6.84876 11.0273 7.30843 11.0273 7.87698C11.0273 8.44402 10.5676 8.90495 9.9993 8.90495C9.4305 8.90495 8.97083 8.44402 8.97083 7.87698C8.97083 7.30868 9.4305 6.84876 9.9993 6.84876ZM7.23173 6.84876C7.79877 6.84876 8.2597 7.30843 8.2597 7.87698C8.2597 8.44402 7.79877 8.90495 7.23173 8.90495C6.66343 8.90495 6.20351 8.44402 6.20351 7.87698C6.20351 7.30868 6.66343 6.84876 7.23173 6.84876ZM9.9993 2.43262C6.98429 2.43262 4.55469 4.78226 4.55469 7.87698C4.55469 9.36336 5.1167 10.677 6.03227 11.6408L5.70738 13.0973C5.60026 13.5766 5.93269 13.8989 6.36344 13.659L7.7857 12.8657C8.46162 13.1591 9.20921 13.3213 9.9993 13.3213C13.0153 13.3213 15.4434 10.9732 15.4434 7.87698C15.4434 4.78226 13.0153 2.43262 9.9993 2.43262Z" fill="#524267"/>
</svg>
