<svg width="105" height="21" viewBox="0 0 105 21" fill="none" xmlns="http://www.w3.org/2000/svg">
<path d="M42.8152 6.228V7.81H40.2112V16H38.2512V7.81H35.6472V6.228H42.8152ZM51.4553 11.954C51.4553 12.234 51.4366 12.486 51.3993 12.71H45.7293C45.776 13.27 45.972 13.7087 46.3173 14.026C46.6626 14.3433 47.0873 14.502 47.5913 14.502C48.3193 14.502 48.8373 14.1893 49.1453 13.564H51.2593C51.0353 14.3107 50.606 14.9267 49.9713 15.412C49.3366 15.888 48.5573 16.126 47.6333 16.126C46.8866 16.126 46.2146 15.9627 45.6173 15.636C45.0293 15.3 44.5673 14.8287 44.2313 14.222C43.9046 13.6153 43.7413 12.9153 43.7413 12.122C43.7413 11.3193 43.9046 10.6147 44.2313 10.008C44.558 9.40133 45.0153 8.93467 45.6033 8.608C46.1913 8.28133 46.868 8.118 47.6333 8.118C48.3706 8.118 49.0286 8.27667 49.6073 8.594C50.1953 8.91133 50.648 9.364 50.9653 9.952C51.292 10.5307 51.4553 11.198 51.4553 11.954ZM49.4253 11.394C49.416 10.89 49.234 10.4887 48.8793 10.19C48.5246 9.882 48.0906 9.728 47.5773 9.728C47.092 9.728 46.6813 9.87733 46.3453 10.176C46.0186 10.4653 45.818 10.8713 45.7433 11.394H49.4253ZM54.8459 5.64V16H52.8859V5.64H54.8459ZM63.9924 11.954C63.9924 12.234 63.9737 12.486 63.9364 12.71H58.2664C58.3131 13.27 58.5091 13.7087 58.8544 14.026C59.1997 14.3433 59.6244 14.502 60.1284 14.502C60.8564 14.502 61.3744 14.1893 61.6824 13.564H63.7964C63.5724 14.3107 63.1431 14.9267 62.5084 15.412C61.8737 15.888 61.0944 16.126 60.1704 16.126C59.4237 16.126 58.7517 15.9627 58.1544 15.636C57.5664 15.3 57.1044 14.8287 56.7684 14.222C56.4417 13.6153 56.2784 12.9153 56.2784 12.122C56.2784 11.3193 56.4417 10.6147 56.7684 10.008C57.0951 9.40133 57.5524 8.93467 58.1404 8.608C58.7284 8.28133 59.4051 8.118 60.1704 8.118C60.9077 8.118 61.5657 8.27667 62.1444 8.594C62.7324 8.91133 63.1851 9.364 63.5024 9.952C63.8291 10.5307 63.9924 11.198 63.9924 11.954ZM61.9624 11.394C61.9531 10.89 61.7711 10.4887 61.4164 10.19C61.0617 9.882 60.6277 9.728 60.1144 9.728C59.6291 9.728 59.2184 9.87733 58.8824 10.176C58.5557 10.4653 58.3551 10.8713 58.2804 11.394H61.9624ZM68.461 8.118C69.0397 8.118 69.5484 8.23467 69.987 8.468C70.4257 8.692 70.771 8.986 71.023 9.35V8.244H72.997V16.056C72.997 16.7747 72.8524 17.414 72.563 17.974C72.2737 18.5433 71.8397 18.9913 71.261 19.318C70.6824 19.654 69.9824 19.822 69.161 19.822C68.0597 19.822 67.1544 19.5653 66.445 19.052C65.745 18.5387 65.3484 17.8387 65.255 16.952H67.201C67.3037 17.3067 67.523 17.5867 67.859 17.792C68.2044 18.0067 68.6197 18.114 69.105 18.114C69.6744 18.114 70.1364 17.9413 70.491 17.596C70.8457 17.26 71.023 16.7467 71.023 16.056V14.852C70.771 15.216 70.421 15.5193 69.973 15.762C69.5344 16.0047 69.0304 16.126 68.461 16.126C67.8077 16.126 67.2104 15.958 66.669 15.622C66.1277 15.286 65.6984 14.8147 65.381 14.208C65.073 13.592 64.919 12.8873 64.919 12.094C64.919 11.31 65.073 10.6147 65.381 10.008C65.6984 9.40133 66.123 8.93467 66.655 8.608C67.1964 8.28133 67.7984 8.118 68.461 8.118ZM71.023 12.122C71.023 11.646 70.9297 11.24 70.743 10.904C70.5564 10.5587 70.3044 10.2973 69.987 10.12C69.6697 9.93333 69.329 9.84 68.965 9.84C68.601 9.84 68.265 9.92867 67.957 10.106C67.649 10.2833 67.397 10.5447 67.201 10.89C67.0144 11.226 66.921 11.6273 66.921 12.094C66.921 12.5607 67.0144 12.9713 67.201 13.326C67.397 13.6713 67.649 13.9373 67.957 14.124C68.2744 14.3107 68.6104 14.404 68.965 14.404C69.329 14.404 69.6697 14.3153 69.987 14.138C70.3044 13.9513 70.5564 13.69 70.743 13.354C70.9297 13.0087 71.023 12.598 71.023 12.122ZM76.8713 9.448C77.1233 9.03733 77.45 8.71533 77.8513 8.482C78.262 8.24867 78.7286 8.132 79.2513 8.132V10.19H78.7333C78.1173 10.19 77.6506 10.3347 77.3333 10.624C77.0253 10.9133 76.8713 11.4173 76.8713 12.136V16H74.9113V8.244H76.8713V9.448ZM80.0675 12.094C80.0675 11.31 80.2215 10.6147 80.5295 10.008C80.8468 9.40133 81.2715 8.93467 81.8035 8.608C82.3448 8.28133 82.9468 8.118 83.6095 8.118C84.1881 8.118 84.6921 8.23467 85.1215 8.468C85.5601 8.70133 85.9101 8.99533 86.1715 9.35V8.244H88.1455V16H86.1715V14.866C85.9195 15.23 85.5695 15.5333 85.1215 15.776C84.6828 16.0093 84.1741 16.126 83.5955 16.126C82.9421 16.126 82.3448 15.958 81.8035 15.622C81.2715 15.286 80.8468 14.8147 80.5295 14.208C80.2215 13.592 80.0675 12.8873 80.0675 12.094ZM86.1715 12.122C86.1715 11.646 86.0781 11.24 85.8915 10.904C85.7048 10.5587 85.4528 10.2973 85.1355 10.12C84.8181 9.93333 84.4775 9.84 84.1135 9.84C83.7495 9.84 83.4135 9.92867 83.1055 10.106C82.7975 10.2833 82.5455 10.5447 82.3495 10.89C82.1628 11.226 82.0695 11.6273 82.0695 12.094C82.0695 12.5607 82.1628 12.9713 82.3495 13.326C82.5455 13.6713 82.7975 13.9373 83.1055 14.124C83.4228 14.3107 83.7588 14.404 84.1135 14.404C84.4775 14.404 84.8181 14.3153 85.1355 14.138C85.4528 13.9513 85.7048 13.69 85.8915 13.354C86.0781 13.0087 86.1715 12.598 86.1715 12.122ZM99.6918 8.132C100.644 8.132 101.409 8.426 101.988 9.014C102.576 9.59267 102.87 10.4047 102.87 11.45V16H100.91V11.716C100.91 11.1093 100.756 10.6473 100.448 10.33C100.14 10.0033 99.7198 9.84 99.1878 9.84C98.6558 9.84 98.2311 10.0033 97.9138 10.33C97.6058 10.6473 97.4518 11.1093 97.4518 11.716V16H95.4918V11.716C95.4918 11.1093 95.3378 10.6473 95.0298 10.33C94.7218 10.0033 94.3018 9.84 93.7698 9.84C93.2284 9.84 92.7991 10.0033 92.4818 10.33C92.1738 10.6473 92.0198 11.1093 92.0198 11.716V16H90.0598V8.244H92.0198V9.182C92.2718 8.85533 92.5938 8.59867 92.9858 8.412C93.3871 8.22533 93.8258 8.132 94.3018 8.132C94.9084 8.132 95.4498 8.26267 95.9258 8.524C96.4018 8.776 96.7704 9.14 97.0318 9.616C97.2838 9.168 97.6478 8.80867 98.1238 8.538C98.6091 8.26733 99.1318 8.132 99.6918 8.132Z" fill="white"/>
<path d="M9.88799 13.8404L9.47114 19.7036C10.0675 19.7036 10.3258 19.4474 10.6356 19.1397L13.4317 16.4675L19.2256 20.7105C20.2882 21.3027 21.0368 20.9909 21.3235 19.733L25.1266 1.91247L25.1276 1.91142C25.4647 0.340624 24.5596 -0.273623 23.5243 0.111725L1.16988 8.67023C-0.355761 9.26243 -0.332662 10.1129 0.910532 10.4983L6.62565 12.2759L19.9007 3.96941C20.5255 3.55571 21.0935 3.78461 20.6263 4.1983L9.88799 13.8404Z" fill="white"/>
</svg>
