<svg width="52" height="52" viewBox="0 0 52 52" fill="none" xmlns="http://www.w3.org/2000/svg">
<rect x="10" y="10" width="32" height="32" rx="10" fill="url(#paint0_linear_6102_5)"/>
<g filter="url(#filter0_f_6102_5)">
<rect x="10" y="10" width="32" height="32" rx="10" fill="url(#paint1_linear_6102_5)"/>
</g>
<path d="M29.9209 21.1805C29.861 21.1329 29.7448 21.1623 29.6239 21.1535C29.4937 21.9645 29.8287 22.8674 29.115 23.6218C28.4195 21.6481 27.5803 19.8762 26.0036 18.6232C25.645 18.3383 25.2465 17.8559 24.8053 18.0413C24.3041 18.2519 24.5441 18.8906 24.5064 19.3445C24.3275 21.498 23.2814 23.2001 21.9989 24.9703C21.648 24.0505 21.6433 23.1618 20.7633 22.5765C20.7309 24.0292 20.2525 25.2182 19.721 26.3883C19.4099 27.0731 19.1729 27.7822 19.0485 28.5296C18.6659 30.8275 20.5973 33.5316 23.0934 33.9016C21.2658 31.2416 23.3568 29.5789 24.3059 27.5722C24.8218 28.1155 24.8103 28.722 24.8288 29.4003C25.6921 28.5481 26.1516 27.484 26.4641 26.3311C26.5328 26.0778 26.4821 25.7021 26.7674 25.6166C27.1077 25.5146 27.2675 25.8838 27.4477 26.106C29.1463 28.2008 29.4438 30.5652 28.6726 33.1324C28.5974 33.3828 28.3624 33.6922 28.5668 33.8956C28.8471 34.1748 29.1111 33.8217 29.3374 33.676C33.9723 30.6914 34.254 24.6204 29.9209 21.1805Z" fill="url(#paint2_linear_6102_5)"/>
<defs>
<filter id="filter0_f_6102_5" x="0" y="0" width="52" height="52" filterUnits="userSpaceOnUse" color-interpolation-filters="sRGB">
<feFlood flood-opacity="0" result="BackgroundImageFix"/>
<feBlend mode="normal" in="SourceGraphic" in2="BackgroundImageFix" result="shape"/>
<feGaussianBlur stdDeviation="5" result="effect1_foregroundBlur_6102_5"/>
</filter>
<linearGradient id="paint0_linear_6102_5" x1="15.597" y1="39.8998" x2="23.9478" y2="17.2514" gradientUnits="userSpaceOnUse">
<stop stop-color="#FF488A"/>
<stop offset="1" stop-color="#FF993C"/>
</linearGradient>
<linearGradient id="paint1_linear_6102_5" x1="15.597" y1="39.8998" x2="23.9478" y2="17.2514" gradientUnits="userSpaceOnUse">
<stop stop-color="#FF488A"/>
<stop offset="1" stop-color="#FF993C"/>
</linearGradient>
<linearGradient id="paint2_linear_6102_5" x1="16.6946" y1="18.0115" x2="25.1693" y2="34.1485" gradientUnits="userSpaceOnUse">
<stop stop-color="white" stop-opacity="0"/>
<stop offset="1" stop-color="white"/>
</linearGradient>
</defs>
</svg>
