<svg width="33" height="33" viewBox="0 0 33 33" fill="none" xmlns="http://www.w3.org/2000/svg">
<path d="M16.5572 32.6438C25.5044 32.6438 32.7024 25.4458 32.7024 16.4986C32.7024 7.5515 25.5044 0.353516 16.5572 0.353516C7.61009 0.353516 0.412109 7.5515 0.412109 16.4986C0.412109 25.4458 7.61009 32.6438 16.5572 32.6438Z" fill="#2775CA"/>
<path d="M20.9987 19.0549C20.9987 16.7004 19.586 15.8932 16.7606 15.5569C14.7424 15.2877 14.3388 14.7496 14.3388 13.8077C14.3388 12.8658 15.0116 12.2605 16.357 12.2605C17.5678 12.2605 18.2406 12.6642 18.5769 13.6732C18.6442 13.875 18.8461 14.0095 19.0479 14.0095H20.1241C20.3932 14.0095 20.5951 13.8077 20.5951 13.5387V13.4714C20.3259 11.9914 19.115 10.8478 17.5678 10.7133V9.09883C17.5678 8.82969 17.366 8.62787 17.0297 8.56055H16.0207C15.7515 8.56055 15.5497 8.76236 15.4824 9.09883V10.646C13.4642 10.9152 12.1862 12.2605 12.1862 13.9424C12.1862 16.1623 13.5316 17.0367 16.357 17.3732C18.2406 17.7095 18.8461 18.1131 18.8461 19.1895C18.8461 20.2659 17.9041 21.0059 16.6261 21.0059C14.8769 21.0059 14.2715 20.2658 14.0697 19.2567C14.0025 18.9877 13.8007 18.8531 13.5989 18.8531H12.4552C12.1862 18.8531 11.9844 19.0549 11.9844 19.324V19.3913C12.2534 21.073 13.3297 22.2839 15.5497 22.6204V24.2349C15.5497 24.5039 15.7515 24.7057 16.0878 24.773H17.0969C17.366 24.773 17.5678 24.5712 17.6352 24.2349V22.6204C19.6533 22.2839 20.9987 20.8712 20.9987 19.0549Z" fill="white"/>
<path d="M13.1269 26.1183C7.8797 24.2348 5.18879 18.3822 7.13977 13.2022C8.14884 10.3768 10.3688 8.2242 13.1269 7.21513C13.396 7.08064 13.5305 6.87883 13.5305 6.54236V5.60062C13.5305 5.33148 13.396 5.12966 13.1269 5.0625C13.0595 5.0625 12.9251 5.0625 12.8577 5.12966C6.467 7.1478 2.96884 13.9423 4.98698 20.333C6.19786 24.1002 9.09059 26.9929 12.8577 28.2038C13.1269 28.3383 13.396 28.2038 13.4632 27.9347C13.5305 27.8675 13.5305 27.8002 13.5305 27.6657V26.7238C13.5305 26.522 13.3287 26.253 13.1269 26.1183ZM20.2577 5.12966C19.9885 4.99517 19.7194 5.12966 19.6522 5.3988C19.5849 5.46613 19.5849 5.53329 19.5849 5.66794V6.60969C19.5849 6.87883 19.7867 7.1478 19.9885 7.28246C25.2357 9.16595 27.9266 15.0186 25.9756 20.1986C24.9666 23.024 22.7466 25.1766 19.9885 26.1857C19.7194 26.3201 19.5849 26.522 19.5849 26.8584V27.8002C19.5849 28.0693 19.7194 28.2711 19.9885 28.3383C20.0559 28.3383 20.1904 28.3383 20.2577 28.2711C26.6484 26.253 30.1466 19.4585 28.1284 13.0677C26.9176 9.23327 23.9575 6.34055 20.2577 5.12966Z" fill="white"/>
</svg>
