<svg width="33" height="33" viewBox="0 0 33 33" fill="none" xmlns="http://www.w3.org/2000/svg">
<circle cx="16.526" cy="16.4986" r="16.1451" fill="#50AF95"/>
<path fill-rule="evenodd" clip-rule="evenodd" d="M18.5708 16.9301C18.4848 16.9366 18.0404 16.9631 17.0492 16.9631C16.2608 16.9631 15.7011 16.9394 15.5047 16.9301C12.458 16.7961 10.1839 16.2657 10.1839 15.6307C10.1839 14.9957 12.458 14.4661 15.5047 14.3299V16.4019C15.7039 16.4162 16.2744 16.4499 17.0628 16.4499C18.0089 16.4499 18.4826 16.4105 18.5679 16.4026V14.3313C21.6081 14.4668 23.8772 14.9972 23.8772 15.6307C23.8772 16.2643 21.6089 16.7947 18.5679 16.9294L18.5708 16.9301ZM18.5708 14.1171V12.2629H22.8136V9.43555H11.2618V12.2629H15.504V14.1163C12.0559 14.2747 9.46289 14.9577 9.46289 15.7762C9.46289 16.5947 12.0559 17.277 15.504 17.4361V23.3776H18.57V17.434C22.0102 17.2756 24.599 16.5933 24.599 15.7755C24.599 14.9577 22.0124 14.2754 18.57 14.1163L18.5708 14.1171Z" fill="white"/>
</svg>
