<svg width="34" height="33" viewBox="0 0 34 33" fill="none" xmlns="http://www.w3.org/2000/svg">
<path d="M32.5673 20.4042C30.411 29.0535 21.6507 34.3173 13.0004 32.1604C4.35372 30.0041 -0.910051 21.2433 1.24719 12.5947C3.40255 3.9445 12.1628 -1.31967 20.8105 0.836633C29.4601 2.99293 34.7236 11.7547 32.567 20.4044L32.5672 20.4042H32.5673Z" fill="#F7931A"/>
<path d="M24.0259 14.1986C24.3472 12.0501 22.7115 10.8951 20.4747 10.1247L21.2003 7.21426L19.4286 6.7728L18.7223 9.6066C18.2565 9.49043 17.7782 9.38098 17.3028 9.27247L18.0143 6.41997L16.2438 5.97852L15.5177 8.88799C15.1323 8.80023 14.7537 8.7135 14.3865 8.62212L14.3885 8.61297L11.9454 8.00287L11.4741 9.89511C11.4741 9.89511 12.7885 10.1964 12.7608 10.215C13.4782 10.394 13.608 10.8689 13.5864 11.2454L12.7599 14.561C12.8093 14.5736 12.8733 14.5917 12.944 14.6201C12.8849 14.6054 12.822 14.5894 12.7568 14.5738L11.5982 19.2186C11.5105 19.4365 11.288 19.7636 10.7864 19.6394C10.8042 19.6651 9.49874 19.3181 9.49874 19.3181L8.61914 21.3461L10.9247 21.9208C11.3536 22.0284 11.7739 22.1409 12.1878 22.2467L11.4547 25.1905L13.2243 25.632L13.9503 22.7194C14.4337 22.8507 14.9029 22.9717 15.3622 23.0858L14.6386 25.9847L16.4104 26.4261L17.1434 23.4878C20.1645 24.0596 22.4361 23.8291 23.3922 21.0965C24.1627 18.8965 23.3538 17.6275 21.7645 16.8C22.9221 16.533 23.794 15.7717 24.0265 14.1989L24.026 14.1985L24.0259 14.1986ZM19.9781 19.8747C19.4305 22.0748 15.7264 20.8855 14.5254 20.5873L15.4983 16.6872C16.6992 16.9871 20.5503 17.5803 19.9781 19.8747H19.9781ZM20.526 14.1668C20.0265 16.1679 16.9435 15.1512 15.9434 14.9019L16.8254 11.3648C17.8256 11.6141 21.0463 12.0794 20.5261 14.1668H20.526Z" fill="white"/>
</svg>
