<svg width="33" height="33" viewBox="0 0 33 33" fill="none" xmlns="http://www.w3.org/2000/svg">
<path d="M31.9442 20.4042C29.7879 29.0535 21.0276 34.3173 12.3773 32.1604C3.73067 30.0041 -1.5331 21.2433 0.624148 12.5947C2.7795 3.9445 11.5398 -1.31967 20.1874 0.836633C28.8371 2.99293 34.1005 11.7547 31.944 20.4044L31.9441 20.4042H31.9442Z" fill="#1176A8"/>
<path d="M21.0817 10.4453H23.2603L18.7265 14.9343C17.0846 16.5591 14.4227 16.5591 12.7797 14.9343L8.24414 10.4453H10.4245L13.8689 13.8553C14.3708 14.35 15.0471 14.6272 15.7518 14.6272C16.4564 14.6272 17.1327 14.35 17.6346 13.8553L21.0817 10.4453Z" fill="white"/>
<path d="M10.3968 22.9286H8.2168L12.78 18.412C14.4218 16.7872 17.0838 16.7872 18.7268 18.412L23.29 22.9286H21.1115L17.6376 19.4909C17.1357 18.9963 16.4594 18.719 15.7547 18.719C15.0501 18.719 14.3738 18.9963 13.8719 19.4909L10.3968 22.9286Z" fill="white"/>
</svg>
