<svg width="33" height="33" viewBox="0 0 33 33" fill="none" xmlns="http://www.w3.org/2000/svg">
<path d="M16.6627 0.353516C13.4695 0.353516 10.348 1.30041 7.69296 3.07446C5.03791 4.84851 2.96855 7.37003 1.74656 10.3202C0.524574 13.2703 0.204846 16.5166 0.827809 19.6484C1.45077 22.7802 2.98845 25.657 5.24638 27.915C7.50432 30.1729 10.3811 31.7106 13.513 32.3335C16.6448 32.9565 19.891 32.6368 22.8412 31.4148C25.7913 30.1928 28.3128 28.1234 30.0869 25.4684C31.8609 22.8133 32.8078 19.6918 32.8078 16.4986C32.814 14.3846 32.4037 12.29 31.6004 10.3345C30.7971 8.37905 29.6165 6.60094 28.126 5.10172C26.6355 3.60251 24.8643 2.41155 22.9135 1.59685C20.9627 0.782154 18.8706 0.359667 16.7565 0.353516H16.6627ZM16.9364 17.0459L15.2554 22.7143H24.2466C24.3062 22.7122 24.3656 22.7219 24.4214 22.7428C24.4772 22.7637 24.5284 22.7953 24.5719 22.836C24.6155 22.8767 24.6506 22.9255 24.6753 22.9798C24.7 23.034 24.7137 23.0926 24.7157 23.1522V23.3007L23.9339 25.9981C23.8994 26.1256 23.8226 26.2377 23.716 26.3158C23.6095 26.394 23.4795 26.4336 23.3475 26.4281H9.587L11.8934 18.5705L9.31336 19.3524L9.89974 17.5541L12.4798 16.7723L15.7245 5.74826C15.7602 5.62141 15.8373 5.51017 15.9436 5.43224C16.0499 5.35431 16.1792 5.31418 16.3109 5.31824H19.7901C19.8497 5.31615 19.909 5.32582 19.9649 5.3467C20.0207 5.36758 20.0718 5.39926 20.1154 5.43992C20.159 5.48058 20.1941 5.52944 20.2188 5.58368C20.2434 5.63793 20.2572 5.69651 20.2592 5.75607V5.90462L17.5227 15.2086L20.1028 14.4267L19.5555 16.3032L16.9364 17.0459Z" fill="#345D9D"/>
</svg>
