<svg width="34" height="33" viewBox="0 0 34 33" fill="none" xmlns="http://www.w3.org/2000/svg">
<path d="M32.702 20.4042C30.5457 29.0535 21.7854 34.3173 13.1351 32.1604C4.48849 30.0041 -0.775285 21.2433 1.38196 12.5947C3.53731 3.9445 12.2976 -1.31967 20.9452 0.836633C29.5949 2.99293 34.8583 11.7547 32.7018 20.4044L32.702 20.4042H32.702Z" fill="#FE0102"/>
<path d="M24.4974 13.2897C23.7406 12.5909 22.6937 11.5238 21.841 10.767L21.7906 10.7317C21.7066 10.6643 21.612 10.6114 21.5105 10.5753C19.4546 10.1919 9.88604 8.40329 9.69937 8.426C9.64706 8.43332 9.59706 8.45229 9.55305 8.48149L9.50512 8.51933C9.4461 8.57927 9.40127 8.65169 9.37394 8.73124L9.36133 8.76403V8.94314V8.97089C10.4385 11.9704 14.6917 21.7962 15.5293 24.1019C15.5797 24.2583 15.6756 24.556 15.8547 24.5711H15.8951C15.9909 24.5711 16.3996 24.0313 16.3996 24.0313C16.3996 24.0313 23.7053 15.1716 24.4444 14.2282C24.5401 14.1119 24.6246 13.9869 24.6967 13.8548C24.7151 13.7514 24.7064 13.645 24.6715 13.546C24.6366 13.447 24.5766 13.3587 24.4974 13.2897ZM18.2739 14.3215L21.392 11.7357L23.2209 13.4209L18.2739 14.3215ZM17.0631 14.1525L11.6948 9.75292L20.3804 11.3548L17.0631 14.1525ZM17.5474 15.3053L23.0418 14.4199L16.7603 21.9879L17.5474 15.3053ZM10.9658 10.1919L16.614 14.985L15.7967 21.993L10.9658 10.1919Z" fill="white"/>
</svg>
