<svg width="33" height="33" viewBox="0 0 33 33" fill="none" xmlns="http://www.w3.org/2000/svg">
<path d="M32.079 20.4042C29.9227 29.0535 21.1624 34.3173 12.5121 32.1604C3.86544 30.0041 -1.39833 21.2433 0.758914 12.5947C2.91427 3.9445 11.6746 -1.31967 20.3222 0.836633C28.9718 2.99293 34.2353 11.7547 32.0788 20.4044L32.0789 20.4042H32.079Z" fill="#C2A633"/>
<path d="M16.6196 8.42578H11.261V15.6283H9.35742V17.3885H11.261V24.5709H16.6196C20.8562 24.5709 24.2905 21.1366 24.2905 16.9004V16.0963C24.2905 11.8601 20.8562 8.42578 16.6196 8.42578ZM21.3023 17.0984C21.3023 19.5924 19.2805 21.6142 16.7861 21.6142H14.3212V17.3885H17.6976V15.6283H14.3212V11.3897H16.5611C19.1797 11.3897 21.3023 13.5123 21.3023 16.1308V17.0984Z" fill="white"/>
</svg>
