<svg width="33" height="33" viewBox="0 0 33 33" fill="none" xmlns="http://www.w3.org/2000/svg">
<path d="M32.454 20.4042C30.2977 29.0535 21.5374 34.3173 12.8871 32.1604C4.24044 30.0041 -1.02333 21.2433 1.13391 12.5947C3.28927 3.9445 12.0496 -1.31967 20.6972 0.836633C29.3468 2.99293 34.6103 11.7547 32.4538 20.4044L32.4539 20.4042H32.454Z" fill="#0033AD"/>
<path d="M12.5 16.4417C12.4627 17.0893 12.9613 17.6437 13.6089 17.681C13.6322 17.681 13.6555 17.681 13.6788 17.681C14.331 17.681 14.8575 17.1545 14.8528 16.5022C14.8528 15.85 14.3264 15.3235 13.6741 15.3282C13.0498 15.3282 12.5326 15.8174 12.5 16.4417Z" fill="white"/>
<path d="M8.11201 16.1376C7.90235 16.1236 7.72065 16.2866 7.71133 16.4963C7.70201 16.706 7.86042 16.8877 8.07008 16.897C8.27974 16.911 8.45678 16.7479 8.47076 16.5382C8.48474 16.3286 8.32167 16.1515 8.11201 16.1376Z" fill="white"/>
<path d="M12.4257 9.61097C12.612 9.51779 12.6866 9.28483 12.5934 9.09847C12.5002 8.9121 12.2673 8.83756 12.0809 8.93074C11.8945 9.02392 11.82 9.25222 11.9132 9.43858C12.0063 9.6296 12.2346 9.70881 12.4257 9.61097Z" fill="white"/>
<path d="M13.6189 11.6923C13.9078 11.5479 14.0242 11.1938 13.8798 10.9049C13.7354 10.6161 13.3813 10.4996 13.0924 10.644C12.8036 10.7885 12.6871 11.1425 12.8315 11.4314C12.976 11.7203 13.33 11.8367 13.6189 11.6923Z" fill="white"/>
<path d="M9.6029 13.1233C9.82654 13.2677 10.1247 13.2072 10.2738 12.9835C10.4182 12.7599 10.3577 12.4617 10.134 12.3126C9.9104 12.1682 9.61222 12.2288 9.46313 12.4524C9.31404 12.676 9.37926 12.9789 9.6029 13.1233Z" fill="white"/>
<path d="M10.316 15.9268C9.98982 15.9081 9.71494 16.1551 9.6963 16.4812C9.67767 16.8073 9.9246 17.0822 10.2507 17.1009C10.5769 17.1195 10.8518 16.8726 10.8704 16.5464C10.889 16.225 10.6421 15.9454 10.316 15.9268Z" fill="white"/>
<path d="M9.66678 19.8724C9.42917 19.9935 9.33133 20.2824 9.45247 20.5247C9.5736 20.7623 9.86247 20.8601 10.1047 20.739C10.3424 20.6178 10.4402 20.329 10.3191 20.0867C10.1979 19.8491 9.9044 19.7513 9.66678 19.8724Z" fill="white"/>
<path d="M11.9506 14.7124C12.2721 14.922 12.7007 14.8335 12.9057 14.512C13.1154 14.1906 13.0269 13.7619 12.7054 13.5569C12.3839 13.3473 11.9553 13.4358 11.7503 13.7573C11.5406 14.0741 11.6292 14.5027 11.9506 14.7124Z" fill="white"/>
<path d="M19.1967 11.6475C19.4669 11.8245 19.835 11.75 20.012 11.4797C20.1891 11.2095 20.1145 10.8414 19.8443 10.6644C19.5741 10.4873 19.206 10.5619 19.029 10.8321C18.8473 11.107 18.9218 11.4704 19.1967 11.6475Z" fill="white"/>
<path d="M20.3997 9.57411C20.5767 9.69059 20.8097 9.63934 20.9261 9.4623C21.0426 9.28525 20.9914 9.0523 20.8143 8.93582C20.6373 8.81934 20.4043 8.87059 20.2878 9.04298C20.176 9.22002 20.2273 9.45764 20.3997 9.57411Z" fill="white"/>
<path d="M19.2842 15.3164C18.6366 15.2791 18.0775 15.7777 18.0449 16.4253C18.0077 17.0729 18.5062 17.632 19.1538 17.6646C19.1771 17.6646 19.2004 17.6646 19.219 17.6646C19.8666 17.6646 20.3931 17.1381 20.3931 16.4858C20.3978 15.8662 19.9086 15.349 19.2842 15.3164Z" fill="white"/>
<path d="M14.0058 14.627C14.2061 15.023 14.6115 15.2746 15.0587 15.2746C15.7063 15.2746 16.2328 14.7481 16.2328 14.0958C16.2328 13.9141 16.1909 13.7324 16.107 13.5647C15.8135 12.9823 15.1053 12.7494 14.5276 13.0429C13.9452 13.3411 13.7123 14.0492 14.0058 14.627Z" fill="white"/>
<path d="M23.2265 13.122C23.4641 13.0009 23.5573 12.7074 23.4362 12.4697C23.315 12.2321 23.0215 12.1389 22.7839 12.2601C22.5463 12.3812 22.4531 12.6701 22.5696 12.9077C22.6954 13.1453 22.9842 13.2431 23.2265 13.122Z" fill="white"/>
<path d="M20.2447 13.4957C19.9046 13.6681 19.7648 14.0828 19.9372 14.4229C20.1096 14.763 20.5243 14.9028 20.8644 14.7304C21.2045 14.558 21.3443 14.1433 21.1719 13.8032C20.9995 13.4631 20.5848 13.328 20.2447 13.4957Z" fill="white"/>
<path d="M16.4006 9.39556C16.6662 9.40954 16.8945 9.20454 16.9131 8.93897C16.9318 8.6734 16.7221 8.44511 16.4565 8.42647C16.191 8.41249 15.9627 8.61283 15.944 8.8784C15.9301 9.14863 16.1351 9.37692 16.4006 9.39556Z" fill="white"/>
<path d="M16.3953 12.437C16.7774 12.4603 17.1035 12.1668 17.1221 11.7848C17.1454 11.4027 16.8519 11.0766 16.4699 11.0579C16.0878 11.0346 15.7617 11.3282 15.743 11.7102C15.7244 12.0923 16.0133 12.4184 16.3953 12.437Z" fill="white"/>
<path d="M12.6495 19.502C12.9897 19.3296 13.1294 18.9149 12.957 18.5748C12.7847 18.2347 12.37 18.0949 12.0299 18.2673C11.6898 18.4397 11.55 18.8544 11.7224 19.1945C11.8948 19.5346 12.3094 19.6744 12.6495 19.502Z" fill="white"/>
<path d="M16.8422 13.4491C16.4881 13.9942 16.6372 14.721 17.1823 15.0751C17.7275 15.4292 18.4543 15.2801 18.8084 14.735C19.1625 14.1899 19.0134 13.4631 18.4682 13.109C18.2772 12.9832 18.0536 12.918 17.8253 12.918C17.4293 12.918 17.0612 13.1183 16.8422 13.4491Z" fill="white"/>
<path d="M18.8902 18.3674C18.5967 17.785 17.8885 17.5521 17.3108 17.8456C16.7284 18.1391 16.4955 18.8473 16.789 19.425C17.0825 20.0074 17.7907 20.2404 18.3684 19.9469C18.9461 19.658 19.1837 18.9591 18.8949 18.3768C18.8949 18.3721 18.8949 18.3721 18.8902 18.3674Z" fill="white"/>
<path d="M20.9437 18.2835C20.6222 18.0738 20.1936 18.1624 19.9886 18.4838C19.7789 18.8053 19.8674 19.234 20.1889 19.439C20.5104 19.6486 20.939 19.5601 21.144 19.2386C21.3537 18.9218 21.2652 18.4932 20.9437 18.2835Z" fill="white"/>
<path d="M23.1966 16.5191C23.2152 16.1929 22.9683 15.9181 22.6421 15.8994C22.316 15.8808 22.0411 16.1277 22.0225 16.4539C22.0038 16.78 22.2508 17.0549 22.5769 17.0735C22.8984 17.0922 23.1779 16.8406 23.1966 16.5191Z" fill="white"/>
<path d="M24.8249 16.1004C24.6152 16.0865 24.4335 16.2495 24.4242 16.4592C24.4149 16.6689 24.5733 16.8506 24.783 16.8599C24.9926 16.8739 25.1697 16.7108 25.1837 16.5011C25.193 16.2915 25.0346 16.1144 24.8249 16.1004Z" fill="white"/>
<path d="M23.2902 19.8732C23.0665 19.7287 22.7684 19.7893 22.6193 20.013C22.4748 20.2366 22.5354 20.5348 22.759 20.6839C22.9827 20.8283 23.2809 20.7677 23.43 20.5441C23.579 20.3205 23.5138 20.0176 23.2902 19.8732Z" fill="white"/>
<path d="M12.4935 23.4221C12.3165 23.3057 12.0835 23.3569 11.9671 23.5293C11.8506 23.7064 11.9018 23.9393 12.0742 24.0558C12.2513 24.1723 12.4842 24.121 12.6007 23.9486C12.7218 23.7762 12.6706 23.5386 12.4935 23.4221Z" fill="white"/>
<path d="M20.4657 23.3877C20.2793 23.4809 20.2047 23.7139 20.2979 23.9002C20.3911 24.0866 20.6241 24.1612 20.8104 24.068C20.9968 23.9748 21.0713 23.7465 20.9782 23.5601C20.885 23.3691 20.6567 23.2899 20.4657 23.3877Z" fill="white"/>
<path d="M16.0514 19.5471C16.4055 19.002 16.2564 18.2752 15.7113 17.9164C15.1662 17.5624 14.4394 17.7114 14.0806 18.2566C13.7219 18.8017 13.8756 19.5285 14.4207 19.8872C14.6117 20.013 14.8354 20.0783 15.0637 20.0783C15.4644 20.0829 15.8324 19.8826 16.0514 19.5471Z" fill="white"/>
<path d="M13.7004 21.3519C13.4302 21.1748 13.0621 21.2494 12.8851 21.5196C12.708 21.7898 12.7826 22.1579 13.0528 22.335C13.323 22.512 13.6911 22.4375 13.8682 22.1672C14.0499 21.897 13.9753 21.5289 13.7004 21.3519Z" fill="white"/>
<path d="M16.4433 23.6003C16.1778 23.5863 15.9495 23.7913 15.9308 24.0569C15.9122 24.3224 16.1219 24.5507 16.3874 24.5694C16.653 24.5834 16.8813 24.383 16.8999 24.1174C16.9139 23.8472 16.7089 23.6189 16.4433 23.6003Z" fill="white"/>
<path d="M16.4469 20.5579C16.0648 20.5346 15.7387 20.8282 15.72 21.2102C15.6968 21.5923 15.9903 21.9184 16.3723 21.937C16.7544 21.9557 17.0805 21.6668 17.0991 21.2848C17.1224 20.9074 16.8289 20.5766 16.4469 20.5579Z" fill="white"/>
<path d="M19.2763 21.3043C18.9875 21.4534 18.871 21.8074 19.0201 22.0963C19.1692 22.3852 19.5233 22.5017 19.8121 22.3526C20.101 22.2081 20.2175 21.854 20.073 21.5652C19.9239 21.2763 19.5699 21.1552 19.2763 21.3043Z" fill="white"/>
</svg>
