<svg width="33" height="33" viewBox="0 0 33 33" fill="none" xmlns="http://www.w3.org/2000/svg">
<path d="M16.1764 32.6438C25.0931 32.6438 32.3215 25.4154 32.3215 16.4986C32.3215 7.58194 25.0931 0.353516 16.1764 0.353516C7.25967 0.353516 0.03125 7.58194 0.03125 16.4986C0.03125 25.4154 7.25967 32.6438 16.1764 32.6438Z" fill="#0AC18E"/>
<path d="M21.213 11.0788C20.4017 9.23894 18.5372 8.84556 16.2547 9.22665L15.5212 6.38281L13.792 6.82947L14.5132 9.66511C14.0583 9.77985 13.5912 9.87819 13.1282 10.0093L12.407 7.19007L10.6777 7.63672L11.4112 10.4806C11.0383 10.5871 7.91992 11.3862 7.91992 11.3862L8.39526 13.2383C8.39526 13.2383 9.66556 12.8818 9.65327 12.9105C10.3581 12.7261 10.69 13.0785 10.8457 13.4105L12.8618 21.2044C12.8864 21.4297 12.8454 21.8149 12.3619 21.9461C12.3906 21.9625 11.1039 22.2698 11.1039 22.2698L11.2924 24.4293C11.2924 24.4293 14.3821 23.6384 14.7877 23.536L15.5294 26.4126L17.2587 25.966L16.517 23.0688C16.9923 22.9582 17.4554 22.8435 17.9061 22.7246L18.6437 25.6054L20.373 25.1587L19.6313 22.2862C22.2948 21.6387 24.1757 19.9587 23.7905 17.3894C23.5446 15.8404 21.8523 14.5701 20.4467 14.4267C21.3114 13.6604 21.7498 12.5417 21.213 11.0788ZM20.3812 17.8606C20.7254 20.4053 17.189 20.7167 16.0212 21.0241L15.0049 17.2173C16.1769 16.9099 19.7993 15.6191 20.3812 17.8606ZM18.2503 12.677C18.615 14.9389 15.5909 15.2012 14.6156 15.4511L13.6896 11.9967C14.6689 11.755 17.5087 10.583 18.2503 12.677Z" fill="white"/>
</svg>
