<svg width="313" height="342" viewBox="0 0 313 342" fill="none" xmlns="http://www.w3.org/2000/svg">
<g style="mix-blend-mode:color-dodge">
<path d="M327.11 49.0593L330.952 45.2187C354.277 21.9006 363.287 -11.1104 355.009 -43.1156C346.822 -74.8465 323.177 -99.1248 291.757 -108.132C211.72 -131.039 125.508 -108.818 66.8298 -50.1568C-16.1801 32.8282 -21.8513 164.278 49.7705 253.939L45.9287 257.779C22.6036 281.097 13.5937 314.154 21.8719 346.114C30.1043 377.845 53.7037 402.123 85.124 411.13C105.659 417.028 126.972 420 148.422 420C219.358 420 285.217 387.812 329.077 331.666C354.643 298.929 370.696 259.928 375.453 218.824C382.542 157.146 365.071 96.5643 327.11 49.0593ZM207.421 162.724C214.784 177.766 216.019 195.369 210.942 212.378C210.165 214.984 209.159 217.498 207.924 219.922C197.542 240.131 180.025 253.07 158.667 256.453C146.73 258.328 134.656 256.819 123.725 252.43L156.654 219.51C177.327 198.844 182.495 167.067 169.46 140.411C157.112 115.173 162.188 84.9052 181.992 65.062C194.386 52.6714 210.897 45.8589 228.459 45.8589C237.057 45.8589 245.427 47.5049 253.156 50.614L220.227 83.5336C199.508 104.246 194.34 136.068 207.421 162.724ZM102.961 -13.9453C136.622 -47.6422 181.992 -65.8393 228.505 -65.8393C244.878 -65.8393 261.389 -63.5991 277.625 -58.9355C291.62 -54.9119 301.727 -44.4873 305.386 -30.3136C309.091 -16.0484 305.066 -1.32596 294.684 9.00716L291.894 11.8419L291.025 12.7106C272.502 0.960114 250.961 -5.34954 228.459 -5.34954C197.222 -5.34954 167.86 6.81249 145.815 28.8504C110.553 64.1019 101.543 117.962 123.45 162.815C126.881 169.811 125.646 178.04 120.432 183.298L86.176 217.544C34.3119 148.139 39.9374 49.1051 102.961 -13.9453ZM324.549 212.972C320.89 244.703 308.496 274.879 288.693 300.163C254.574 343.828 203.442 368.837 148.33 368.837C131.683 368.837 115.127 366.505 99.1648 361.933C85.1698 357.91 75.0622 347.485 71.4033 333.312C67.6988 319.047 71.7235 304.324 82.0597 293.945L85.8101 290.196C109.547 305.147 138.269 311.319 166.533 306.884C203.945 301.032 235.639 277.805 253.431 243.24C256.083 238.073 258.279 232.587 259.971 227.009C268.798 197.61 266.465 166.747 253.385 140.137C249.955 133.142 251.144 124.912 256.403 119.654L290.614 85.454C317.643 121.711 329.855 166.884 324.549 212.972Z" fill="url(#paint0_linear_2119_7084)" fill-opacity="0.5"/>
</g>
<defs>
<linearGradient id="paint0_linear_2119_7084" x1="65.8918" y1="384.789" x2="243.62" y2="46.3796" gradientUnits="userSpaceOnUse">
<stop stop-color="#142AA2"/>
<stop offset="1" stop-color="#9E41FE"/>
</linearGradient>
</defs>
</svg>
