<svg width="32" height="32" viewBox="0 0 32 32" fill="none" xmlns="http://www.w3.org/2000/svg">
<circle cx="16" cy="16.002" r="16" fill="white"/>
<path d="M15.9993 0.00195312C7.16394 0.00195312 0 7.16589 0 16.0013C0 24.8367 7.16394 32.002 15.9993 32.002C24.8347 32.002 32 24.8367 32 16.0013C32 7.16589 24.8347 0.00195312 15.9993 0.00195312ZM19.33 24.7987C18.5065 25.1238 17.8509 25.3703 17.3592 25.541C16.8689 25.7117 16.2987 25.797 15.6499 25.797C14.653 25.797 13.8768 25.5532 13.3242 25.0669C12.7716 24.5807 12.4966 23.9644 12.4966 23.2153C12.4966 22.9241 12.5169 22.6261 12.5575 22.3227C12.5995 22.0193 12.6659 21.678 12.7567 21.2947L13.7874 17.6538C13.8782 17.3043 13.9567 16.9725 14.019 16.6636C14.0814 16.3521 14.1112 16.0663 14.1112 15.8062C14.1112 15.343 14.015 15.0179 13.824 14.8351C13.6303 14.6522 13.2659 14.5628 12.7228 14.5628C12.4573 14.5628 12.1837 14.6021 11.9033 14.6847C11.6257 14.77 11.3846 14.8472 11.1868 14.9231L11.459 13.8016C12.1336 13.5266 12.7797 13.2909 13.396 13.0959C14.0123 12.8981 14.5947 12.8006 15.1433 12.8006C16.1334 12.8006 16.8974 13.0417 17.4351 13.5185C17.9701 13.9966 18.2397 14.6183 18.2397 15.3823C18.2397 15.5407 18.2207 15.8198 18.1841 16.218C18.1476 16.6176 18.0785 16.9819 17.9782 17.3165L16.9529 20.9465C16.8689 21.2378 16.7944 21.571 16.7267 21.9435C16.6603 22.3159 16.6278 22.6004 16.6278 22.7914C16.6278 23.2736 16.7348 23.6027 16.9515 23.7774C17.1655 23.9522 17.5407 24.0402 18.0717 24.0402C18.3223 24.0402 18.6027 23.9955 18.9196 23.9088C19.2339 23.8221 19.4614 23.7449 19.605 23.6786L19.33 24.7987ZM19.1485 10.0645C18.6704 10.5088 18.0947 10.7309 17.4215 10.7309C16.7497 10.7309 16.17 10.5088 15.6878 10.0645C15.2083 9.62024 14.9658 9.07979 14.9658 8.4486C14.9658 7.81876 15.2097 7.27696 15.6878 6.82862C16.17 6.37893 16.7497 6.15543 17.4215 6.15543C18.0947 6.15543 18.6717 6.37893 19.1485 6.82862C19.6267 7.27696 19.8664 7.81876 19.8664 8.4486C19.8664 9.08115 19.6267 9.62024 19.1485 10.0645Z" fill="#524267"/>
</svg>
