<svg width="13" height="15" viewBox="0 0 13 15" fill="none" xmlns="http://www.w3.org/2000/svg">
<path fill-rule="evenodd" clip-rule="evenodd" d="M4.30572 0.480727C5.7072 -0.172798 7.32774 -0.152948 8.801 0.497274C10.3024 1.15993 11.6505 2.73022 12.3406 4.21022C12.507 4.56722 12.3526 4.99158 11.9956 5.15806L10.7101 5.75749C11.1577 6.17912 11.5343 6.69094 11.8097 7.28143C12.975 9.7804 11.8938 12.751 9.39477 13.9162L8.10167 14.5193C6.70016 15.1728 5.07969 15.1529 3.6064 14.5027C2.10495 13.8401 0.756964 12.2698 0.0668219 10.7898C-0.0131177 10.6183 -0.0216837 10.4222 0.043014 10.2444C0.107712 10.0667 0.240366 9.9219 0.411807 9.84195L1.69729 9.24247C1.24972 8.82088 0.873043 8.30906 0.597712 7.71857C-0.567602 5.21957 0.513579 2.24904 3.0126 1.08373L4.30572 0.480727ZM6.66393 7.71272C7.5564 7.29655 8.61734 7.68262 9.03352 8.57517C9.44969 9.46764 9.06354 10.5286 8.171 10.9448L6.87819 11.5476C6.4496 11.7475 5.95918 11.7689 5.51476 11.6071C5.30329 11.5302 5.1105 11.4147 4.94495 11.2686L5.45642 11.0301C5.81347 10.8637 5.96788 10.4393 5.80141 10.0823C5.38524 9.18976 5.77139 8.1289 6.66393 7.71272ZM6.06103 6.41991C4.6767 7.06539 3.96915 8.57267 4.27927 10.0051L3.56077 10.3401C3.20377 10.5066 3.04931 10.931 3.21579 11.288C3.57553 12.0595 4.22702 12.6564 5.02691 12.9476C5.82681 13.2387 6.70958 13.2001 7.48109 12.8405L8.7739 12.2376C10.3804 11.4885 11.0754 9.57883 10.3263 7.97234C9.57722 6.36578 7.66753 5.67075 6.06103 6.41991Z" fill="white"/>
</svg>
