<svg width="11" height="15" viewBox="0 0 11 15" fill="none" xmlns="http://www.w3.org/2000/svg">
<path d="M10.4118 7.86933C10.0634 7.41871 9.53751 7.10919 8.83429 6.94097C9.72979 6.48419 10.1233 5.70893 10.0153 4.61505C9.97916 4.21839 9.86954 3.87461 9.68616 3.58322C9.50265 3.29176 9.25502 3.05745 8.94231 2.8802C8.62985 2.70272 8.29002 2.56762 7.92361 2.47447C7.5571 2.38133 7.13632 2.3137 6.66154 2.27167V0H5.27343V2.20856C5.03306 2.20856 4.66649 2.21456 4.17374 2.22659V0H2.78544V2.27167C2.58706 2.2777 2.29564 2.28077 1.91104 2.28077L0 2.27167V3.75009H1.00054C1.45729 3.75009 1.72472 3.95446 1.80283 4.36306V6.95028C1.86301 6.95028 1.91104 6.95338 1.94713 6.95938H1.80283V10.5831C1.75481 10.8895 1.58055 11.0429 1.28003 11.0429H0.279555L6.3113e-05 12.6926H1.80299C1.91719 12.6926 2.08236 12.6941 2.2988 12.6968C2.51511 12.6998 2.6773 12.7013 2.78551 12.7013V15H4.17403V12.7284C4.42637 12.7345 4.79294 12.7375 5.27371 12.7375V15H6.66186V12.7013C7.15476 12.6773 7.59193 12.6325 7.97337 12.5662C8.355 12.4998 8.72019 12.3963 9.06867 12.255C9.41712 12.1139 9.70854 11.938 9.94288 11.7276C10.1774 11.5175 10.371 11.2499 10.5245 10.9253C10.6775 10.6008 10.7753 10.2252 10.8172 9.79837C10.8957 8.96324 10.7604 8.32015 10.4118 7.86933ZM4.20074 3.84898C4.24283 3.84898 4.36151 3.84746 4.55683 3.84443C4.75224 3.84134 4.91443 3.83837 5.04363 3.83534C5.17287 3.83237 5.34715 3.83988 5.56659 3.85791C5.78594 3.87594 5.97071 3.90003 6.1209 3.93003C6.2711 3.96002 6.43651 4.00962 6.61664 4.07874C6.79709 4.14779 6.94122 4.23197 7.04927 4.33111C7.15753 4.43025 7.24916 4.55651 7.32415 4.70977C7.39936 4.863 7.43693 5.03877 7.43693 5.23706C7.43693 5.40534 7.40994 5.55864 7.35591 5.69693C7.30198 5.83513 7.22065 5.95085 7.1126 6.04399C7.00453 6.13716 6.89313 6.21837 6.77893 6.28742C6.66486 6.35647 6.51898 6.41211 6.34176 6.45413C6.16457 6.49622 6.00983 6.52928 5.87769 6.55327C5.74546 6.57733 5.58023 6.59391 5.38189 6.60288C5.18351 6.61184 5.03322 6.61797 4.93111 6.62094C4.8289 6.62391 4.68922 6.62391 4.51187 6.62094C4.33449 6.61797 4.23096 6.61639 4.20083 6.61639V3.84894L4.20074 3.84898ZM7.99149 9.98778C7.93425 10.1261 7.86075 10.2463 7.77067 10.3486C7.68043 10.4506 7.56168 10.5408 7.41451 10.6188C7.26738 10.6971 7.12451 10.76 6.9864 10.8081C6.84811 10.8564 6.68127 10.8982 6.48615 10.9344C6.29058 10.9705 6.11942 10.9959 5.97203 11.011C5.82487 11.0261 5.64916 11.0381 5.44475 11.0471C5.2405 11.056 5.08114 11.0606 4.96701 11.0606C4.8528 11.0606 4.70854 11.0589 4.53425 11.056C4.35987 11.0532 4.2488 11.0517 4.20068 11.0517V8.00463C4.2487 8.00463 4.39145 8.00169 4.62888 7.99557C4.86635 7.9895 5.06005 7.98669 5.21031 7.98669C5.36054 7.98669 5.56795 7.99557 5.83248 8.01372C6.09675 8.03162 6.31912 8.05856 6.49957 8.09461C6.67979 8.13073 6.87646 8.18624 7.08997 8.26145C7.30325 8.33653 7.47611 8.42816 7.60838 8.53633C7.74061 8.64469 7.85172 8.7827 7.94183 8.95102C8.03216 9.11925 8.07722 9.3116 8.07722 9.528C8.07719 9.69645 8.04867 9.84946 7.99149 9.98778Z" fill="white"/>
</svg>
