<svg width="15" height="11" viewBox="0 0 15 11" fill="none" xmlns="http://www.w3.org/2000/svg">
<path d="M14.8506 2.27637C14.8506 2.27637 14.7041 1.24219 14.2529 0.788086C13.6816 0.19043 13.043 0.1875 12.75 0.152344C10.6523 -8.3819e-08 7.50293 0 7.50293 0H7.49707C7.49707 0 4.34766 -8.3819e-08 2.25 0.152344C1.95703 0.1875 1.31836 0.19043 0.74707 0.788086C0.295898 1.24219 0.152344 2.27637 0.152344 2.27637C0.152344 2.27637 0 3.49219 0 4.70508V5.8418C0 7.05469 0.149414 8.27051 0.149414 8.27051C0.149414 8.27051 0.295898 9.30469 0.744141 9.75879C1.31543 10.3564 2.06543 10.3359 2.39941 10.4004C3.60059 10.5146 7.5 10.5498 7.5 10.5498C7.5 10.5498 10.6523 10.5439 12.75 10.3945C13.043 10.3594 13.6816 10.3564 14.2529 9.75879C14.7041 9.30469 14.8506 8.27051 14.8506 8.27051C14.8506 8.27051 15 7.05762 15 5.8418V4.70508C15 3.49219 14.8506 2.27637 14.8506 2.27637ZM5.9502 7.22168V3.00586L10.002 5.12109L5.9502 7.22168Z" fill="white"/>
</svg>
