<svg width="15" height="13" viewBox="0 0 15 13" fill="none" xmlns="http://www.w3.org/2000/svg">
<path d="M13.7277 0.109493C11.7488 0.928962 3.26406 4.44352 0.919649 5.40146C-0.652658 6.01504 0.267705 6.59025 0.267705 6.59025C0.267705 6.59025 1.6098 7.05035 2.76022 7.3955C3.91063 7.74066 4.52421 7.35714 4.52421 7.35714L9.93112 3.71405C11.8484 2.41032 11.3883 3.484 10.9282 3.9441C9.93112 4.9412 8.28224 6.51335 6.90177 7.77887C6.2882 8.31571 6.59499 8.77597 6.8634 9.00602C7.8605 9.84965 10.5831 11.5753 10.7365 11.6904C11.5467 12.2638 13.1402 13.0895 13.3825 11.3452L14.3413 5.32473C14.648 3.29232 14.9548 1.41322 14.9932 0.876383C15.1081 -0.427346 13.7277 0.109493 13.7277 0.109493Z" fill="white"/>
</svg>
