<svg width="14" height="12" viewBox="0 0 14 12" fill="none" xmlns="http://www.w3.org/2000/svg">
<path d="M10.7724 3.89173H13.9796L8.21419 10.4111L10.752 3.95003C10.7596 3.93061 10.7673 3.91117 10.7724 3.89173ZM10.7749 3.33642H14L11.7855 0.115568C11.7371 0.0461525 11.6607 0.00451388 11.5818 0.00451388H9.75673C9.75438 0.00378305 10.7764 3.33315 10.7749 3.33642ZM3.77746 3.89173C4.18497 4.92985 6.41292 10.6009 6.76582 11.4968C6.79289 11.5654 6.847 11.6202 6.91091 11.6467C7.03172 11.706 7.18405 11.6265 7.23417 11.4968L7.78146 10.1057L10.2225 3.89174L3.77746 3.89173ZM10.2378 3.33642L9.27818 0.193321C9.24255 0.0822498 9.14582 0.00451388 9.03636 0.00451388H4.96363C4.85418 0.00451388 4.75746 0.0822498 4.72181 0.193321L3.76219 3.33642H10.2378ZM4.23819 0.0183944C4.28486 -0.0214989 2.41042 0.0180016 2.41819 0.00448658C2.33927 0.00451385 2.26291 0.0461525 2.21455 0.115568L0 3.33642H3.22509L4.23819 0.0183944ZM3.22508 3.89173H0.0203675L5.78581 10.4111C5.76799 10.3612 3.23834 3.93898 3.22508 3.89173Z" fill="#524267"/>
</svg>
