<svg width="14" height="12" viewBox="0 0 14 12" fill="none" xmlns="http://www.w3.org/2000/svg">
<path d="M10.7724 4.05872H13.9796L8.21419 10.5781L10.752 4.11702C10.7596 4.0976 10.7673 4.07816 10.7724 4.05872ZM10.7749 3.50341H14L11.7855 0.28256C11.7371 0.213145 11.6607 0.171506 11.5818 0.171506H9.75673C9.75438 0.170775 10.7764 3.50014 10.7749 3.50341ZM3.77746 4.05872C4.18497 5.09685 6.41292 10.7679 6.76582 11.6638C6.79289 11.7323 6.847 11.7872 6.91091 11.8137C7.03172 11.8729 7.18405 11.7935 7.23417 11.6638L7.78146 10.2727L10.2225 4.05873L3.77746 4.05872ZM10.2378 3.50341L9.27818 0.360313C9.24255 0.249242 9.14582 0.171506 9.03636 0.171506H4.96363C4.85418 0.171506 4.75746 0.249242 4.72181 0.360313L3.76219 3.50341H10.2378ZM4.23819 0.185387C4.28486 0.145493 2.41042 0.184994 2.41819 0.171479C2.33927 0.171506 2.26291 0.213145 2.21455 0.28256L0 3.50341H3.22509L4.23819 0.185387ZM3.22508 4.05872H0.0203675L5.78581 10.5781C5.76799 10.5282 3.23834 4.10597 3.22508 4.05872Z" fill="#524267"/>
</svg>
