<svg width="12" height="15" viewBox="0 0 12 15" fill="none" xmlns="http://www.w3.org/2000/svg">
<path d="M8 12.8572C8 13.2664 7.84196 13.6588 7.56066 13.9481C7.27936 14.2375 6.89782 14.4 6.5 14.4H5.5C5.10218 14.4 4.72064 14.2375 4.43934 13.9481C4.15804 13.6588 4 13.2664 4 12.8572C4 12.448 4.15804 12.0556 4.43934 11.7663C4.72064 11.477 5.10218 11.3144 5.5 11.3144H6.5C6.89782 11.3144 7.27936 11.477 7.56066 11.7663C7.84196 12.0556 8 12.448 8 12.8572ZM11 4.62901H10.9745C10.8507 3.3604 10.2731 2.18432 9.35384 1.32897C8.43456 0.473623 7.23913 0 5.9995 0C4.75987 0 3.56444 0.473623 2.64516 1.32897C1.72589 2.18432 1.14831 3.3604 1.0245 4.62901H1C0.734784 4.62901 0.48043 4.73737 0.292893 4.93026C0.105357 5.12314 0 5.38475 0 5.65753V9.25737C0 9.53015 0.105357 9.79176 0.292893 9.98465C0.48043 10.1775 0.734784 10.2859 1 10.2859H2C2.26522 10.2859 2.51957 10.1775 2.70711 9.98465C2.89464 9.79176 3 9.53015 3 9.25737V5.65753C2.99924 5.39133 2.89816 5.13579 2.71801 4.94465C2.53786 4.75351 2.29268 4.64166 2.034 4.63261C2.15418 3.63787 2.62362 2.72257 3.35401 2.05891C4.0844 1.39525 5.02541 1.02897 6 1.02897C6.97459 1.02897 7.9156 1.39525 8.64599 2.05891C9.37638 2.72257 9.84582 3.63787 9.966 4.63261C9.70732 4.64166 9.46214 4.75351 9.28199 4.94465C9.10184 5.13579 9.00076 5.39133 9 5.65753V9.25737C9 9.53015 9.10536 9.79176 9.29289 9.98465C9.48043 10.1775 9.73478 10.2859 10 10.2859V10.8002C9.99895 11.1312 9.89413 11.4531 9.70111 11.7181C9.50809 11.9831 9.23714 12.1769 8.9285 12.271C9.01428 12.6155 9.023 12.9756 8.954 13.3242C9.52782 13.2152 10.0465 12.9032 10.4202 12.4422C10.7938 11.9812 10.999 11.4003 11 10.8002V10.2859C11.2652 10.2859 11.5196 10.1775 11.7071 9.98465C11.8946 9.79176 12 9.53015 12 9.25737V5.65753C12 5.38475 11.8946 5.12314 11.7071 4.93026C11.5196 4.73737 11.2652 4.62901 11 4.62901Z" fill="#524267"/>
</svg>
