<svg width="14" height="14" viewBox="0 0 14 14" fill="none" xmlns="http://www.w3.org/2000/svg">
<path d="M3.08372 10.8056C3.8108 11.5327 4.65093 12.0909 5.55183 12.4527L2.17223 13.7754C1.97933 13.851 1.78007 13.8878 1.58435 13.8878C1.17382 13.8878 0.775309 13.7259 0.468651 13.4193C0.0150229 12.9657 -0.121348 12.3135 0.112532 11.7157L1.44162 8.31987C1.81894 9.24973 2.37502 10.0969 3.08372 10.8056ZM2.87881 4.6428L2.05917 6.74842L2.16516 7.14411C2.45486 8.25345 3.03426 9.2568 3.8327 10.0552C4.66647 10.889 5.66276 11.4613 6.72264 11.7157L7.16072 11.8217L9.23808 11.0091C7.75425 10.3449 6.27749 8.98123 5.5921 8.29584C4.89258 7.59632 3.543 6.12662 2.87881 4.6428ZM4.91943 2.02702C4.36264 1.93869 3.8108 2.26302 3.59953 2.80355C3.59812 2.80779 3.5967 2.81133 3.59529 2.81557C3.57409 2.86644 3.56137 2.92085 3.55643 2.97879C3.46599 4.20118 5.00069 6.20223 6.3432 7.54474C7.64756 8.8491 9.57371 10.335 10.8032 10.335C10.8392 10.335 10.8745 10.3336 10.9092 10.3315C10.9621 10.3273 11.0342 10.3075 11.0837 10.2884C11.6242 10.0771 11.9507 9.52177 11.8602 8.9678C11.6906 7.93407 10.6301 6.33577 9.09111 4.79683C7.55217 3.25789 5.95317 2.19518 4.91943 2.02702ZM13.8754 6.27642C13.3744 5.67158 12.6671 5.2978 11.8842 5.22432C11.5974 5.19605 11.3345 5.41085 11.3077 5.70267C11.2801 5.99379 11.4942 6.2524 11.786 6.27925C12.2863 6.32588 12.7392 6.56541 13.06 6.95262C13.1646 7.0791 13.3158 7.14411 13.4684 7.14411C13.5871 7.14411 13.7072 7.10383 13.8062 7.02257C14.0316 6.83604 14.0619 6.50182 13.8754 6.27642ZM7.88144 2.23617C7.88144 2.52869 8.11885 2.7661 8.41138 2.7661C8.7039 2.7661 8.94132 2.52869 8.94132 2.23617C8.94132 1.45044 8.63536 0.711355 8.07928 0.155979C7.87225 -0.0510508 7.53662 -0.0510508 7.32959 0.155979C7.12257 0.363008 7.12257 0.698636 7.32959 0.905666C7.68006 1.25613 7.88073 1.74156 7.88073 2.23687L7.88144 2.23617ZM11.2377 3.18016C11.3734 3.18016 11.509 3.12858 11.6122 3.02472L13.732 0.904959C13.939 0.69793 13.939 0.362302 13.732 0.155272C13.5249 -0.0517574 13.1893 -0.0517574 12.9823 0.155272L10.8625 2.27503C10.6555 2.48206 10.6555 2.81769 10.8625 3.02472C10.9657 3.12788 11.1021 3.18016 11.2377 3.18016Z" fill="#524267"/>
</svg>
