<svg width="9" height="11" viewBox="0 0 9 11" fill="none" xmlns="http://www.w3.org/2000/svg">
<path d="M8.5323 1.69082C8.57465 1.64846 8.60825 1.59818 8.63117 1.54284C8.6541 1.48751 8.66589 1.42819 8.66589 1.3683C8.66589 1.3084 8.6541 1.24909 8.63117 1.19375C8.60825 1.13841 8.57465 1.08813 8.5323 1.04578C8.02962 0.5431 7.08538 0.0684148 7.04547 0.0481754C6.95984 0.00536937 6.86291 -0.00940595 6.76841 0.00594273C6.67392 0.0212914 6.58665 0.0659858 6.51896 0.133694C6.08396 0.568584 5.7404 0.912198 4.56099 0.912198C4.14776 0.912198 3.75529 0.746862 3.33973 0.571891C2.69469 0.300227 1.91898 -0.0257696 0.912198 0.248916V0H0V3.64879H0.912198V2.52245C1.47862 2.18608 1.90507 2.3696 2.57034 2.65643C3.1452 2.90427 3.81321 3.19235 4.6684 3.12359C3.37513 4.91635 2.78665 6.62312 2.51938 7.8258C2.35401 8.55045 2.2678 9.29091 2.26225 10.0342H1.8244V10.9464H6.84148V10.0342H6.253C5.07706 6.4363 7.10841 3.1147 8.5323 1.69082Z" fill="#524267"/>
</svg>
