<svg width="10" height="13" fill="none" xmlns="http://www.w3.org/2000/svg">
	<symbol id="icon-promotions" viewBox="0 0 10 13">
		<path d="M0 9.83822C0.754489 6.22466 2.36656 2.88659 4.67709 0.153478C4.71815 0.105102 4.7681 0.0664817 4.82364 0.0400623C4.87923 0.0136429 4.93931 0 5.00001 0C5.0607 0 5.12073 0.0136429 5.17632 0.0400623C5.23191 0.0664817 5.28186 0.105102 5.32292 0.153478C5.41393 0.260295 5.48959 0.350496 5.54935 0.423488C7.74041 3.1069 9.27116 6.34495 10 9.83822C8.82621 10.1059 7.62062 10.2815 6.39036 10.3569L5.24507 12.8362C5.22226 12.8854 5.18729 12.9268 5.14397 12.9557C5.10072 12.9847 5.05088 13 5.00001 13C4.94913 13 4.89929 12.9847 4.85598 12.9557C4.81273 12.9268 4.77775 12.8854 4.75494 12.8362L3.60964 10.3569C2.39608 10.2826 1.18943 10.1092 0 9.83822ZM5.00001 8.02589C5.43619 8.02589 5.85455 7.83831 6.163 7.50444C6.47144 7.17058 6.64474 6.7178 6.64474 6.24561C6.64474 5.77348 6.47144 5.32063 6.163 4.98676C5.85455 4.65289 5.43619 4.46532 5.00001 4.46532C4.56377 4.46532 4.14546 4.65289 3.83699 4.98676C3.52854 5.32063 3.35526 5.77348 3.35526 6.24561C3.35526 6.7178 3.52854 7.17058 3.83699 7.50444C4.14546 7.83831 4.56377 8.02589 5.00001 8.02589Z" fill="url(#paint0_linear_2119_7551)" />
		<defs>
			<linearGradient id="paint0_linear_2119_7551" x1="5.00006" y1="-1.29983" x2="5.00006" y2="14.3002" gradientUnits="userSpaceOnUse">
				<stop stop-color="white" />
				<stop offset="0.979167" stop-color="#7367F0" />
			</linearGradient>
		</defs>
	</symbol>
</svg>
