<svg width="12" height="12" viewBox="0 0 12 12" fill="none" xmlns="http://www.w3.org/2000/svg">
<path fill-rule="evenodd" clip-rule="evenodd" d="M10.575 0H1.425C1.0472 0.000421837 0.684987 0.150691 0.417839 0.417839C0.150691 0.684987 0.000421837 1.0472 0 1.425L0 10.575C0.000415646 10.9528 0.150683 11.315 0.417832 11.5822C0.684981 11.8493 1.04719 11.9996 1.425 12H10.575C10.9528 11.9996 11.315 11.8493 11.5822 11.5822C11.8493 11.315 11.9996 10.9528 12 10.575V1.425C11.9996 1.04719 11.8493 0.684981 11.5822 0.417832C11.315 0.150683 10.9528 0.000415646 10.575 0ZM9.00937 1.70391C9.26386 1.70391 9.51264 1.77937 9.72424 1.92076C9.93584 2.06214 10.1008 2.2631 10.1981 2.49822C10.2955 2.73334 10.321 2.99205 10.2714 3.24165C10.2217 3.49125 10.0992 3.72052 9.91922 3.90047C9.73927 4.08042 9.51 4.20297 9.2604 4.25262C9.0108 4.30227 8.75209 4.27679 8.51697 4.1794C8.28185 4.08201 8.08089 3.91709 7.93951 3.70549C7.79812 3.49389 7.72266 3.24511 7.72266 2.99062C7.72306 2.64949 7.85875 2.32244 8.09997 2.08122C8.34119 1.84 8.66824 1.70431 9.00937 1.70391ZM2.99062 7.72266C3.24511 7.72266 3.49389 7.79812 3.70549 7.93951C3.91709 8.08089 4.08201 8.28185 4.1794 8.51697C4.27679 8.75209 4.30227 9.0108 4.25262 9.2604C4.20297 9.51 4.08042 9.73927 3.90047 9.91922C3.72052 10.0992 3.49125 10.2217 3.24165 10.2714C2.99205 10.321 2.73334 10.2955 2.49822 10.1981C2.2631 10.1008 2.06214 9.93584 1.92076 9.72424C1.77937 9.51264 1.70391 9.26386 1.70391 9.00937C1.70432 8.66824 1.84001 8.3412 2.08123 8.09998C2.32245 7.85876 2.64949 7.72307 2.99062 7.72266ZM9.00937 7.72266C9.26386 7.72266 9.51264 7.79812 9.72424 7.93951C9.93584 8.08089 10.1008 8.28185 10.1981 8.51697C10.2955 8.75209 10.321 9.0108 10.2714 9.2604C10.2217 9.51 10.0992 9.73927 9.91922 9.91922C9.73927 10.0992 9.51 10.2217 9.2604 10.2714C9.0108 10.321 8.75209 10.2955 8.51697 10.1981C8.28185 10.1008 8.08089 9.93584 7.93951 9.72424C7.79812 9.51264 7.72266 9.26386 7.72266 9.00937C7.72303 8.66823 7.85871 8.34116 8.09994 8.09994C8.34116 7.85871 8.66823 7.72303 9.00937 7.72266ZM2.99062 1.70391C3.24511 1.70391 3.49389 1.77937 3.70549 1.92076C3.91709 2.06214 4.08201 2.2631 4.1794 2.49822C4.27679 2.73334 4.30227 2.99205 4.25262 3.24165C4.20297 3.49125 4.08042 3.72052 3.90047 3.90047C3.72052 4.08042 3.49125 4.20297 3.24165 4.25262C2.99205 4.30227 2.73334 4.27679 2.49822 4.1794C2.2631 4.08201 2.06214 3.91709 1.92076 3.70549C1.77937 3.49389 1.70391 3.24511 1.70391 2.99062C1.70431 2.64949 1.84 2.32244 2.08122 2.08122C2.32244 1.84 2.64949 1.70431 2.99062 1.70391Z" fill="#524267"/>
</svg>
